<svg width="635" height="654" viewBox="0 0 635 654" fill="none" xmlns="http://www.w3.org/2000/svg">
<g filter="url(#filter0_d)">
<rect x="224.657" width="437.341" height="489.652" rx="40" transform="rotate(27.3104 224.657 0)" fill="#FFEA2E"/>
<rect x="224.657" width="437.341" height="489.652" rx="40" transform="rotate(27.3104 224.657 0)" fill="url(#paint0_linear)" fill-opacity="0.1"/>
<path fill-rule="evenodd" clip-rule="evenodd" d="M235.51 224.258L224 228.244L225.764 217.622L227.529 207L237.268 213.625L247.014 220.249L235.51 224.258Z" fill="#FFD98E"/>
<path d="M270.803 119.651V91.8965C270.804 91.1285 271.111 90.3923 271.658 89.8493C272.205 89.3063 272.946 89.0009 273.719 89H297.394C298.167 89.0009 298.908 89.3063 299.454 89.8493C300.001 90.3923 300.308 91.1285 300.309 91.8965V119.651C300.308 120.419 300.001 121.155 299.454 121.698C298.908 122.241 298.167 122.546 297.394 122.547H273.719C272.946 122.546 272.205 122.241 271.658 121.698C271.111 121.155 270.804 120.419 270.803 119.651Z" fill="#FBCF18"/>
<path d="M224.801 132.524V104.77C224.802 104.002 225.11 103.265 225.656 102.722C226.203 102.179 226.944 101.874 227.717 101.873H251.392C252.165 101.874 252.906 102.179 253.452 102.722C253.999 103.265 254.307 104.002 254.307 104.77V132.524C254.307 133.292 253.999 134.028 253.452 134.571C252.906 135.114 252.165 135.419 251.392 135.42H227.717C226.944 135.419 226.203 135.114 225.656 134.571C225.11 134.028 224.802 133.292 224.801 132.524Z" fill="#CCCCCC"/>
<path d="M433.49 441.356H443.569V376.661H433.49V441.356Z" fill="#3F3D56"/>
<path d="M486.19 287.724L464.851 295.78L459.641 281.403C458.949 279.494 458.959 277.403 459.669 275.501C460.378 273.598 461.742 272.006 463.519 271.006C465.316 269.994 467.419 269.654 469.447 270.047C471.475 270.44 473.294 271.541 474.576 273.15L486.19 287.724Z" fill="#FBCF18"/>
<path d="M431.913 344.687C431.464 344.372 431.087 343.965 430.809 343.494C430.53 343.022 430.356 342.497 430.298 341.954C427.564 316.607 429.468 296.772 436.117 281.313C437.288 278.647 439.052 276.279 441.277 274.388C443.501 272.496 446.128 271.13 448.961 270.392L466.21 269.527L466.3 269.57C470.192 271.464 473.367 274.554 475.352 278.381C477.338 282.209 478.029 286.57 477.324 290.818C471.776 305.347 467.13 320.473 470.673 332.675C470.821 333.186 470.865 333.72 470.8 334.247C470.736 334.775 470.565 335.283 470.298 335.743C470.039 336.188 469.691 336.575 469.275 336.881C468.86 337.187 468.386 337.405 467.882 337.522L435.027 345.286C434.495 345.412 433.942 345.423 433.405 345.32C432.868 345.217 432.359 345.001 431.913 344.687Z" fill="#FBCF18"/>
<path d="M460.453 263.127C470.97 263.127 479.495 254.657 479.495 244.21C479.495 233.763 470.97 225.293 460.453 225.293C449.937 225.293 441.412 233.763 441.412 244.21C441.412 254.657 449.937 263.127 460.453 263.127Z" fill="#FFB8B8"/>
<path d="M483.589 439.589H75.4224C75.2655 439.589 75.115 439.508 75.0041 439.364C74.8931 439.219 74.8308 439.023 74.8308 438.819C74.8308 438.615 74.8931 438.419 75.0041 438.274C75.115 438.13 75.2655 438.049 75.4224 438.049H483.589C483.746 438.049 483.896 438.13 484.007 438.274C484.118 438.419 484.18 438.615 484.18 438.819C484.18 439.023 484.118 439.219 484.007 439.364C483.896 439.508 483.746 439.589 483.589 439.589Z" fill="#CCCCCC"/>
<path d="M494.03 305.3H179.265C177.928 305.3 176.646 305.828 175.701 306.767C174.756 307.705 174.225 308.979 174.225 310.307C174.225 311.634 174.756 312.908 175.701 313.846C176.646 314.785 177.928 315.313 179.265 315.313H188.18V435.077C188.18 436.405 188.711 437.678 189.656 438.617C190.601 439.556 191.883 440.083 193.22 440.083C194.556 440.083 195.838 439.556 196.783 438.617C197.728 437.678 198.259 436.405 198.259 435.077L198.336 315.313H474.26V435.077C474.26 436.405 474.791 437.678 475.736 438.617C476.681 439.556 477.963 440.083 479.299 440.083C480.636 440.083 481.918 439.556 482.863 438.617C483.808 437.678 484.339 436.405 484.339 435.077V317.952L485.805 315.313H494.03C495.366 315.313 496.648 314.785 497.593 313.846C498.538 312.908 499.069 311.634 499.069 310.307C499.069 308.979 498.538 307.705 497.593 306.767C496.648 305.828 495.366 305.3 494.03 305.3Z" fill="#CCCCCC"/>
<path d="M353.773 307.92H258.427C256.581 307.918 254.811 307.188 253.505 305.891C252.2 304.594 251.466 302.836 251.464 301.002V248.853C251.466 247.019 252.2 245.261 253.505 243.964C254.811 242.667 256.581 241.938 258.427 241.936H353.773C355.619 241.938 357.389 242.667 358.694 243.964C360 245.261 360.734 247.019 360.736 248.853V301.002C360.734 302.836 360 304.594 358.694 305.891C357.389 307.188 355.619 307.918 353.773 307.92Z" fill="#3F3D56"/>
<path d="M353.772 247.26H258.428C258.002 247.261 257.595 247.429 257.294 247.728C256.993 248.027 256.824 248.432 256.823 248.854V301.004C256.824 301.426 256.993 301.831 257.294 302.13C257.595 302.429 258.002 302.597 258.428 302.598H353.772C354.198 302.597 354.605 302.429 354.906 302.13C355.207 301.831 355.376 301.426 355.377 301.004V248.854C355.376 248.432 355.207 248.027 354.906 247.728C354.605 247.429 354.198 247.261 353.772 247.26Z" fill="white"/>
<path d="M314.232 284.181C314.232 284.181 302.818 281.569 296.54 286.359C290.263 291.149 304.53 302.036 304.53 302.036L314.232 284.181Z" fill="#2F2E41"/>
<path d="M306.659 279.245C312.605 279.245 317.426 274.456 317.426 268.549C317.426 262.642 312.605 257.854 306.659 257.854C300.713 257.854 295.893 262.642 295.893 268.549C295.893 274.456 300.713 279.245 306.659 279.245Z" fill="#A0616A"/>
<path d="M298.334 253.535C299.052 252.324 300.092 251.335 301.341 250.675C302.59 250.015 303.997 249.71 305.409 249.795C306.886 249.979 308.327 250.38 309.685 250.984L316.723 253.712C318.545 254.417 320.539 255.282 321.33 257.058C322.063 258.707 321.516 260.611 320.962 262.327L318.329 270.486C318.037 268.64 317.536 266.832 316.836 265.097C316.125 263.35 314.84 261.894 313.189 260.965C311.361 260.034 309.206 260.053 307.154 260.151C304.247 260.29 301.087 260.657 299.022 262.694C297.925 263.851 297.182 265.293 296.878 266.853C296.579 268.404 296.429 269.98 296.429 271.56C295.237 269.524 294.233 267.386 293.429 265.171C292.768 263.521 292.391 261.773 292.314 259.999C292.245 258.21 292.843 256.458 293.993 255.08C294.576 254.406 295.338 253.908 296.191 253.641C297.045 253.374 297.956 253.349 298.823 253.57L298.334 253.535Z" fill="#2F2E41"/>
<path d="M332.367 293.456C332.265 293.095 332.059 292.771 331.774 292.526C331.488 292.281 331.136 292.125 330.762 292.077C330.737 292.06 330.711 292.045 330.684 292.031L314.612 283.083C314.153 282.827 313.612 282.758 313.103 282.888C312.593 283.018 312.154 283.339 311.876 283.782L307.48 290.853L300.859 284.275L300.754 284.171C300.414 283.833 299.966 283.625 299.487 283.584C299.008 283.542 298.53 283.67 298.136 283.943L284.927 293.133C284.904 293.133 284.881 293.14 284.857 293.14C284.225 293.245 283.648 293.561 283.221 294.035C282.794 294.51 282.542 295.115 282.508 295.751L282.167 302.598H334.917L332.367 293.456Z" fill="#FBCF18"/>
<path d="M361.808 301.534H351.63C351.63 301.252 351.517 300.982 351.316 300.782C351.115 300.582 350.843 300.47 350.559 300.47H347.345C347.061 300.47 346.788 300.582 346.587 300.782C346.387 300.982 346.274 301.252 346.274 301.534H343.06C343.06 301.252 342.947 300.982 342.746 300.782C342.545 300.582 342.273 300.47 341.988 300.47H338.775C338.49 300.47 338.218 300.582 338.017 300.782C337.816 300.982 337.703 301.252 337.703 301.534H334.489C334.489 301.252 334.376 300.982 334.176 300.782C333.975 300.582 333.702 300.47 333.418 300.47H330.204C329.92 300.47 329.648 300.582 329.447 300.782C329.246 300.982 329.133 301.252 329.133 301.534H325.919C325.919 301.252 325.806 300.982 325.605 300.782C325.404 300.582 325.132 300.47 324.848 300.47H321.634C321.35 300.47 321.077 300.582 320.876 300.782C320.675 300.982 320.562 301.252 320.562 301.534H317.349C317.349 301.252 317.236 300.982 317.035 300.782C316.834 300.582 316.561 300.47 316.277 300.47H313.063C312.779 300.47 312.507 300.582 312.306 300.782C312.105 300.982 311.992 301.252 311.992 301.534H308.778C308.778 301.252 308.665 300.982 308.464 300.782C308.263 300.582 307.991 300.47 307.707 300.47H304.493C304.209 300.47 303.936 300.582 303.735 300.782C303.535 300.982 303.422 301.252 303.422 301.534H300.208C300.208 301.252 300.095 300.982 299.894 300.782C299.693 300.582 299.421 300.47 299.136 300.47H295.923C295.638 300.47 295.366 300.582 295.165 300.782C294.964 300.982 294.851 301.252 294.851 301.534H291.637C291.637 301.252 291.524 300.982 291.324 300.782C291.123 300.582 290.85 300.47 290.566 300.47H287.352C287.068 300.47 286.796 300.582 286.595 300.782C286.394 300.982 286.281 301.252 286.281 301.534H283.067C283.067 301.252 282.954 300.982 282.753 300.782C282.552 300.582 282.28 300.47 281.996 300.47H278.782C278.498 300.47 278.225 300.582 278.024 300.782C277.823 300.982 277.71 301.252 277.71 301.534H274.497C274.497 301.252 274.384 300.982 274.183 300.782C273.982 300.582 273.709 300.47 273.425 300.47H270.211C269.927 300.47 269.655 300.582 269.454 300.782C269.253 300.982 269.14 301.252 269.14 301.534H265.926C265.926 301.252 265.813 300.982 265.612 300.782C265.411 300.582 265.139 300.47 264.855 300.47H261.641C261.357 300.47 261.084 300.582 260.883 300.782C260.682 300.982 260.57 301.252 260.57 301.534H250.392C249.541 301.536 248.725 301.873 248.123 302.471C247.521 303.07 247.183 303.881 247.183 304.727C247.183 305.573 247.521 306.385 248.123 306.983C248.725 307.582 249.541 307.919 250.392 307.92H361.808C362.66 307.92 363.477 307.584 364.08 306.985C364.683 306.386 365.021 305.574 365.021 304.727C365.021 303.88 364.683 303.068 364.08 302.47C363.477 301.871 362.66 301.534 361.808 301.534Z" fill="#3F3D56"/>
<path d="M233.825 282.993V304.193H180.36C178.927 304.243 177.499 304.005 176.161 303.495C174.823 302.984 173.602 302.212 172.571 301.222C171.54 300.233 170.72 299.048 170.16 297.737C169.6 296.426 169.312 295.017 169.312 293.593C169.312 292.169 169.6 290.76 170.16 289.449C170.72 288.139 171.54 286.953 172.571 285.964C173.602 284.975 174.823 284.202 176.161 283.692C177.499 283.181 178.927 282.944 180.36 282.993H233.825Z" fill="#F2F2F2"/>
<path d="M235.138 304.03C235.138 304.246 235.052 304.454 234.898 304.607C234.744 304.759 234.535 304.845 234.317 304.845H179.407C176.425 304.845 173.565 303.669 171.456 301.574C169.347 299.479 168.163 296.637 168.163 293.675C168.163 290.712 169.347 287.871 171.456 285.776C173.565 283.681 176.425 282.504 179.407 282.504H234.317C234.535 282.504 234.744 282.59 234.898 282.743C235.052 282.896 235.138 283.103 235.138 283.319C235.138 283.536 235.052 283.743 234.898 283.896C234.744 284.049 234.535 284.135 234.317 284.135H179.407C176.862 284.137 174.421 285.143 172.622 286.932C170.823 288.721 169.813 291.146 169.813 293.675C169.813 296.203 170.823 298.629 172.622 300.417C174.421 302.206 176.862 303.212 179.407 303.215H234.317C234.535 303.215 234.744 303.301 234.898 303.454C235.051 303.606 235.138 303.814 235.138 304.03Z" fill="#FBCF18"/>
<path d="M233.825 287.885H176.371C176.349 287.885 176.327 287.881 176.307 287.873C176.287 287.865 176.269 287.853 176.254 287.838C176.238 287.823 176.226 287.805 176.218 287.785C176.21 287.765 176.205 287.744 176.205 287.722C176.205 287.701 176.21 287.679 176.218 287.659C176.226 287.64 176.238 287.622 176.254 287.606C176.269 287.591 176.287 287.579 176.307 287.571C176.327 287.563 176.349 287.559 176.371 287.559H233.825C233.868 287.559 233.91 287.577 233.94 287.607C233.971 287.638 233.988 287.679 233.988 287.722C233.988 287.765 233.971 287.807 233.94 287.837C233.91 287.868 233.868 287.885 233.825 287.885Z" fill="#CCCCCC"/>
<path d="M233.825 291.799H176.371C176.349 291.799 176.327 291.795 176.307 291.787C176.287 291.779 176.269 291.767 176.254 291.752C176.238 291.737 176.226 291.719 176.218 291.699C176.21 291.679 176.205 291.658 176.205 291.636C176.205 291.615 176.21 291.593 176.218 291.574C176.226 291.554 176.238 291.536 176.254 291.521C176.269 291.505 176.287 291.493 176.307 291.485C176.327 291.477 176.349 291.473 176.371 291.473H233.825C233.868 291.473 233.91 291.491 233.94 291.521C233.971 291.552 233.988 291.593 233.988 291.636C233.988 291.679 233.971 291.721 233.94 291.751C233.91 291.782 233.868 291.799 233.825 291.799Z" fill="#CCCCCC"/>
<path d="M233.825 295.713H176.371C176.349 295.713 176.327 295.709 176.307 295.701C176.287 295.693 176.269 295.681 176.254 295.666C176.238 295.65 176.226 295.632 176.218 295.612C176.21 295.593 176.205 295.571 176.205 295.55C176.205 295.528 176.21 295.507 176.218 295.487C176.226 295.467 176.238 295.449 176.254 295.434C176.269 295.419 176.287 295.407 176.307 295.399C176.327 295.391 176.349 295.387 176.371 295.387H233.825C233.868 295.387 233.91 295.404 233.94 295.435C233.971 295.465 233.988 295.507 233.988 295.55C233.988 295.593 233.971 295.634 233.94 295.665C233.91 295.695 233.868 295.713 233.825 295.713Z" fill="#CCCCCC"/>
<path d="M233.825 299.626H176.371C176.349 299.627 176.327 299.622 176.307 299.614C176.287 299.606 176.269 299.594 176.254 299.579C176.238 299.564 176.226 299.546 176.218 299.526C176.21 299.506 176.205 299.485 176.205 299.463C176.205 299.442 176.21 299.421 176.218 299.401C176.226 299.381 176.238 299.363 176.254 299.348C176.269 299.333 176.287 299.321 176.307 299.312C176.327 299.304 176.349 299.3 176.371 299.3H233.825C233.868 299.301 233.91 299.318 233.94 299.348C233.971 299.379 233.988 299.42 233.988 299.463C233.988 299.506 233.971 299.548 233.94 299.578C233.91 299.609 233.868 299.626 233.825 299.626Z" fill="#CCCCCC"/>
<path d="M223.746 260.658V281.858H170.281C168.849 281.907 167.421 281.67 166.083 281.159C164.745 280.649 163.524 279.876 162.493 278.887C161.462 277.898 160.642 276.712 160.082 275.402C159.522 274.091 159.233 272.682 159.233 271.258C159.233 269.834 159.522 268.425 160.082 267.114C160.642 265.803 161.462 264.618 162.493 263.629C163.524 262.639 164.745 261.867 166.083 261.356C167.421 260.846 168.849 260.608 170.281 260.658H223.746Z" fill="#F2F2F2"/>
<path d="M225.059 281.695C225.059 281.911 224.973 282.118 224.819 282.271C224.665 282.424 224.456 282.51 224.239 282.51H169.329C167.852 282.51 166.39 282.221 165.026 281.66C163.661 281.098 162.422 280.275 161.377 279.238C160.333 278.201 159.505 276.969 158.94 275.614C158.375 274.259 158.084 272.806 158.084 271.339C158.084 269.872 158.375 268.42 158.94 267.064C159.505 265.709 160.333 264.478 161.377 263.44C162.422 262.403 163.661 261.58 165.026 261.019C166.39 260.457 167.852 260.168 169.329 260.168H224.239C224.456 260.168 224.665 260.254 224.819 260.407C224.973 260.56 225.059 260.768 225.059 260.984C225.059 261.2 224.973 261.407 224.819 261.56C224.665 261.713 224.456 261.799 224.239 261.799H169.329C166.783 261.801 164.343 262.808 162.544 264.596C160.745 266.385 159.734 268.811 159.734 271.339C159.734 273.868 160.745 276.293 162.544 278.082C164.343 279.871 166.783 280.877 169.329 280.879H224.239C224.456 280.879 224.665 280.965 224.819 281.118C224.973 281.271 225.059 281.478 225.059 281.695Z" fill="#3F3D56"/>
<path d="M223.746 265.55H166.292C166.27 265.55 166.249 265.546 166.229 265.538C166.209 265.53 166.19 265.518 166.175 265.502C166.16 265.487 166.147 265.469 166.139 265.449C166.131 265.43 166.126 265.408 166.126 265.387C166.126 265.365 166.131 265.344 166.139 265.324C166.147 265.304 166.16 265.286 166.175 265.271C166.19 265.256 166.209 265.244 166.229 265.236C166.249 265.228 166.27 265.223 166.292 265.224H223.746C223.79 265.224 223.831 265.241 223.862 265.272C223.892 265.302 223.909 265.344 223.909 265.387C223.909 265.43 223.892 265.471 223.862 265.502C223.831 265.532 223.79 265.55 223.746 265.55Z" fill="#CCCCCC"/>
<path d="M223.746 269.464H166.292C166.27 269.464 166.249 269.46 166.229 269.452C166.209 269.444 166.19 269.432 166.175 269.416C166.16 269.401 166.147 269.383 166.139 269.363C166.131 269.344 166.126 269.322 166.126 269.301C166.126 269.279 166.131 269.258 166.139 269.238C166.147 269.218 166.16 269.2 166.175 269.185C166.19 269.17 166.209 269.158 166.229 269.15C166.249 269.142 166.27 269.138 166.292 269.138H223.746C223.79 269.138 223.831 269.155 223.862 269.186C223.892 269.216 223.909 269.258 223.909 269.301C223.909 269.344 223.892 269.385 223.862 269.416C223.831 269.446 223.79 269.464 223.746 269.464Z" fill="#CCCCCC"/>
<path d="M223.746 273.377H166.292C166.27 273.378 166.249 273.373 166.229 273.365C166.209 273.357 166.19 273.345 166.175 273.33C166.16 273.315 166.147 273.297 166.139 273.277C166.131 273.257 166.126 273.236 166.126 273.214C166.126 273.193 166.131 273.172 166.139 273.152C166.147 273.132 166.16 273.114 166.175 273.099C166.19 273.083 166.209 273.071 166.229 273.063C166.249 273.055 166.27 273.051 166.292 273.051H223.746C223.79 273.052 223.831 273.069 223.862 273.099C223.892 273.13 223.909 273.171 223.909 273.214C223.909 273.257 223.892 273.299 223.862 273.329C223.831 273.36 223.79 273.377 223.746 273.377Z" fill="#CCCCCC"/>
<path d="M223.746 277.291H166.292C166.27 277.291 166.249 277.287 166.229 277.279C166.209 277.271 166.19 277.259 166.175 277.244C166.16 277.228 166.147 277.21 166.139 277.191C166.131 277.171 166.126 277.149 166.126 277.128C166.126 277.106 166.131 277.085 166.139 277.065C166.147 277.045 166.16 277.027 166.175 277.012C166.19 276.997 166.209 276.985 166.229 276.977C166.249 276.969 166.27 276.965 166.292 276.965H223.746C223.79 276.965 223.831 276.982 223.862 277.013C223.892 277.044 223.909 277.085 223.909 277.128C223.909 277.171 223.892 277.212 223.862 277.243C223.831 277.273 223.79 277.291 223.746 277.291Z" fill="#CCCCCC"/>
<path d="M285.943 379.548V361.063C285.943 360.246 285.616 359.463 285.034 358.885C284.453 358.307 283.664 357.982 282.842 357.982H212.291C211.468 357.982 210.68 358.307 210.098 358.885C209.516 359.463 209.19 360.246 209.19 361.063V379.548H285.943Z" fill="#CCCCCC"/>
<path d="M285.943 386.479H209.19V410.355H285.943V386.479Z" fill="#CCCCCC"/>
<path d="M209.19 417.287V435.771C209.19 436.588 209.516 437.372 210.098 437.95C210.68 438.527 211.468 438.852 212.291 438.852H282.842C283.664 438.852 284.453 438.527 285.034 437.95C285.616 437.372 285.943 436.588 285.943 435.771V417.287H209.19Z" fill="#CCCCCC"/>
<path d="M247.179 371.846C248.463 371.846 249.504 370.811 249.504 369.535C249.504 368.259 248.463 367.225 247.179 367.225C245.894 367.225 244.853 368.259 244.853 369.535C244.853 370.811 245.894 371.846 247.179 371.846Z" fill="white"/>
<path d="M247.179 402.653C248.463 402.653 249.504 401.619 249.504 400.343C249.504 399.067 248.463 398.032 247.179 398.032C245.894 398.032 244.853 399.067 244.853 400.343C244.853 401.619 245.894 402.653 247.179 402.653Z" fill="white"/>
<path d="M247.303 432.809C248.588 432.809 249.629 431.774 249.629 430.498C249.629 429.222 248.588 428.188 247.303 428.188C246.019 428.188 244.977 429.222 244.977 430.498C244.977 431.774 246.019 432.809 247.303 432.809Z" fill="white"/>
<path d="M277.241 336.906V358.106H223.775C222.343 358.156 220.915 357.918 219.577 357.408C218.239 356.898 217.018 356.125 215.987 355.136C214.956 354.146 214.136 352.961 213.576 351.65C213.016 350.34 212.728 348.93 212.728 347.506C212.728 346.082 213.016 344.673 213.576 343.362C214.136 342.052 214.956 340.866 215.987 339.877C217.018 338.888 218.239 338.115 219.577 337.605C220.915 337.094 222.343 336.857 223.775 336.906H277.241Z" fill="#F2F2F2"/>
<path d="M278.554 357.943C278.554 358.159 278.468 358.367 278.314 358.52C278.16 358.673 277.951 358.758 277.733 358.759H222.823C221.346 358.76 219.883 358.472 218.517 357.911C217.152 357.35 215.911 356.527 214.866 355.49C213.821 354.453 212.992 353.221 212.426 351.865C211.86 350.509 211.569 349.056 211.569 347.588C211.569 346.12 211.86 344.667 212.426 343.311C212.992 341.955 213.821 340.723 214.866 339.686C215.911 338.648 217.152 337.825 218.517 337.265C219.883 336.704 221.346 336.416 222.823 336.417H277.733C277.951 336.417 278.16 336.503 278.314 336.656C278.468 336.809 278.554 337.016 278.554 337.232C278.554 337.449 278.468 337.656 278.314 337.809C278.16 337.962 277.951 338.048 277.733 338.048H222.823C220.278 338.05 217.838 339.056 216.038 340.845C214.239 342.634 213.229 345.059 213.229 347.588C213.229 350.116 214.239 352.542 216.038 354.331C217.838 356.119 220.278 357.126 222.823 357.128H277.733C277.951 357.128 278.16 357.214 278.314 357.367C278.468 357.52 278.554 357.727 278.554 357.943Z" fill="#3F3D56"/>
<path d="M277.241 341.799H219.786C219.765 341.799 219.743 341.795 219.723 341.787C219.703 341.779 219.685 341.767 219.67 341.751C219.654 341.736 219.642 341.718 219.634 341.698C219.625 341.679 219.621 341.657 219.621 341.636C219.621 341.614 219.625 341.593 219.634 341.573C219.642 341.553 219.654 341.535 219.67 341.52C219.685 341.505 219.703 341.493 219.723 341.485C219.743 341.477 219.765 341.473 219.786 341.473H277.241C277.284 341.473 277.326 341.49 277.356 341.521C277.387 341.551 277.404 341.593 277.404 341.636C277.404 341.679 277.387 341.72 277.356 341.751C277.326 341.781 277.284 341.799 277.241 341.799Z" fill="#CCCCCC"/>
<path d="M277.241 345.712H219.786C219.765 345.713 219.743 345.708 219.723 345.7C219.703 345.692 219.685 345.68 219.67 345.665C219.654 345.65 219.642 345.632 219.634 345.612C219.625 345.592 219.621 345.571 219.621 345.549C219.621 345.528 219.625 345.507 219.634 345.487C219.642 345.467 219.654 345.449 219.67 345.434C219.685 345.418 219.703 345.406 219.723 345.398C219.743 345.39 219.765 345.386 219.786 345.386H277.241C277.284 345.387 277.326 345.404 277.356 345.434C277.387 345.465 277.404 345.506 277.404 345.549C277.404 345.592 277.387 345.634 277.356 345.664C277.326 345.695 277.284 345.712 277.241 345.712Z" fill="#CCCCCC"/>
<path d="M277.241 349.626H219.786C219.765 349.627 219.743 349.622 219.723 349.614C219.703 349.606 219.685 349.594 219.67 349.579C219.654 349.564 219.642 349.546 219.634 349.526C219.625 349.506 219.621 349.485 219.621 349.463C219.621 349.442 219.625 349.421 219.634 349.401C219.642 349.381 219.654 349.363 219.67 349.348C219.685 349.332 219.703 349.321 219.723 349.312C219.743 349.304 219.765 349.3 219.786 349.3H277.241C277.284 349.301 277.326 349.318 277.356 349.348C277.387 349.379 277.404 349.42 277.404 349.463C277.404 349.506 277.387 349.548 277.356 349.578C277.326 349.609 277.284 349.626 277.241 349.626Z" fill="#CCCCCC"/>
<path d="M277.241 353.54H219.786C219.765 353.54 219.743 353.536 219.723 353.528C219.703 353.52 219.685 353.508 219.67 353.493C219.654 353.478 219.642 353.459 219.634 353.44C219.625 353.42 219.621 353.398 219.621 353.377C219.621 353.355 219.625 353.334 219.634 353.314C219.642 353.294 219.654 353.276 219.67 353.261C219.685 353.246 219.703 353.234 219.723 353.226C219.743 353.218 219.765 353.214 219.786 353.214H277.241C277.284 353.214 277.326 353.232 277.356 353.262C277.387 353.293 277.404 353.334 277.404 353.377C277.404 353.42 277.387 353.461 277.356 353.492C277.326 353.522 277.284 353.54 277.241 353.54Z" fill="#CCCCCC"/>
<path d="M261.732 171.787V144.033C261.733 143.265 262.041 142.529 262.587 141.986C263.134 141.443 263.875 141.137 264.648 141.136H288.323C289.096 141.137 289.837 141.443 290.384 141.986C290.93 142.529 291.238 143.265 291.238 144.033V171.787C291.238 172.555 290.93 173.291 290.384 173.834C289.837 174.377 289.096 174.683 288.323 174.683H264.648C263.875 174.683 263.134 174.377 262.587 173.834C262.041 173.291 261.733 172.555 261.732 171.787Z" fill="#FF6584"/>
<path d="M403.212 298.677H378.852C378.621 298.677 378.393 298.73 378.186 298.831L372.038 301.889C371.835 301.975 371.663 302.117 371.541 302.299C371.42 302.481 371.355 302.695 371.355 302.913C371.355 303.132 371.42 303.345 371.541 303.528C371.663 303.71 371.835 303.852 372.038 303.938L378.186 306.995C378.393 307.097 378.621 307.15 378.852 307.15H403.212C403.547 307.169 403.877 307.056 404.13 306.835C404.382 306.615 404.537 306.304 404.561 305.971V299.856C404.537 299.523 404.382 299.212 404.13 298.992C403.877 298.771 403.547 298.658 403.212 298.677Z" fill="#3F3D56"/>
<path d="M404.561 299.856V305.971C404.537 306.304 404.383 306.615 404.13 306.835C403.877 307.056 403.548 307.169 403.212 307.149H398.359V298.677H403.212C403.548 298.658 403.877 298.771 404.13 298.992C404.383 299.212 404.537 299.523 404.561 299.856Z" fill="#FBCF18"/>
<path d="M403.028 252.928C404.132 252.455 405.323 252.219 406.525 252.236C407.727 252.252 408.911 252.52 410.001 253.023C411.091 253.526 412.062 254.252 412.85 255.153C413.637 256.055 414.225 257.111 414.573 258.254C414.681 258.616 414.764 258.986 414.821 259.359L448.885 276.14L456.769 270.95L466.577 282.168L454.54 291.88C453.093 293.039 451.308 293.703 449.45 293.775C447.593 293.846 445.761 293.32 444.228 292.275L409.667 268.532C409.41 268.64 409.147 268.735 408.88 268.817C407.73 269.163 406.519 269.263 405.327 269.111C404.134 268.959 402.988 268.559 401.963 267.937C400.937 267.314 400.055 266.483 399.376 265.499C398.696 264.514 398.233 263.398 398.018 262.223C397.954 261.883 397.912 261.538 397.892 261.192C397.796 259.458 398.237 257.737 399.155 256.26C400.073 254.782 401.425 253.62 403.028 252.928Z" fill="#FFB8B8"/>
<path d="M473.978 356.249H436.757C436.757 357.311 398.396 358.174 398.396 358.174C397.794 358.624 397.245 359.141 396.76 359.714C395.303 361.441 394.507 363.623 394.512 365.876V367.416C394.513 369.969 395.534 372.418 397.351 374.223C399.168 376.028 401.633 377.043 404.203 377.044H473.978C476.548 377.041 479.011 376.026 480.828 374.221C482.645 372.416 483.667 369.969 483.669 367.416V365.876C483.666 363.324 482.644 360.877 480.827 359.072C479.01 357.268 476.547 356.252 473.978 356.249Z" fill="#3F3D56"/>
<path d="M404.805 441.005C404.805 442.087 420.078 441.424 438.917 441.424C457.757 441.424 473.03 442.087 473.03 441.005C473.03 439.924 457.757 431.345 438.917 431.345C420.078 431.345 404.805 439.924 404.805 441.005Z" fill="#3F3D56"/>
<path d="M413.903 433.423L404.399 433.422L399.877 408.932L413.905 408.933L413.903 433.423Z" fill="#FFB8B8"/>
<path d="M416.327 442.575L385.68 442.574V442.189C385.68 440.633 385.988 439.092 386.588 437.654C387.187 436.216 388.066 434.91 389.174 433.81C390.282 432.709 391.597 431.836 393.044 431.241C394.491 430.645 396.042 430.339 397.609 430.339H397.61L416.328 430.34L416.327 442.575Z" fill="#2F2E41"/>
<path d="M399.687 418.236L380.739 376.023C379.157 372.466 378.982 368.446 380.249 364.766C381.516 361.086 384.132 358.015 387.575 356.165L428.676 334.27L447.431 332.685L464.731 331.123L464.856 331.333C465.015 331.601 468.735 337.983 466.221 344.982C464.314 350.291 459.353 354.437 451.476 357.306C433.09 364.004 411.852 369.727 403.574 371.877C403.208 371.97 402.866 372.139 402.571 372.372C402.275 372.606 402.033 372.899 401.86 373.232C401.686 373.562 401.583 373.923 401.556 374.294C401.53 374.665 401.582 375.038 401.707 375.388L419.311 414.679C419.495 415.177 419.561 415.711 419.505 416.239C419.448 416.766 419.27 417.274 418.985 417.723C418.7 418.171 418.315 418.549 417.859 418.826C417.404 419.104 416.89 419.274 416.358 419.323L403.204 420.274C403.092 420.285 402.981 420.29 402.871 420.29C402.197 420.29 401.538 420.095 400.973 419.731C400.408 419.366 399.961 418.847 399.687 418.236Z" fill="#2F2E41"/>
<path d="M418.555 433.423L409.051 433.422L404.528 408.932L418.556 408.933L418.555 433.423Z" fill="#FFB8B8"/>
<path d="M420.979 442.575L390.332 442.574V442.189C390.332 440.633 390.64 439.092 391.24 437.654C391.839 436.216 392.718 434.91 393.825 433.81C394.933 432.709 396.248 431.836 397.695 431.241C399.143 430.645 400.694 430.339 402.26 430.339H402.261L420.98 430.34L420.979 442.575Z" fill="#2F2E41"/>
<path d="M405.114 420.546L386.166 378.334C384.584 374.776 384.409 370.757 385.676 367.077C386.943 363.396 389.559 360.325 393.002 358.475L434.103 336.581L452.858 334.996L470.158 333.434L470.283 333.643C470.442 333.911 474.162 340.294 471.648 347.292C469.741 352.601 464.78 356.748 456.903 359.617C438.517 366.314 417.279 372.038 409.001 374.187C408.635 374.28 408.293 374.449 407.998 374.683C407.702 374.916 407.46 375.21 407.287 375.543C407.113 375.872 407.01 376.234 406.983 376.605C406.957 376.976 407.009 377.348 407.134 377.698L424.738 416.989C424.922 417.488 424.988 418.021 424.932 418.549C424.875 419.077 424.697 419.585 424.412 420.033C424.127 420.482 423.742 420.86 423.286 421.137C422.831 421.414 422.317 421.584 421.785 421.633L408.631 422.585C408.519 422.595 408.408 422.6 408.298 422.6C407.624 422.6 406.965 422.406 406.4 422.041C405.835 421.677 405.388 421.158 405.114 420.546Z" fill="#2F2E41"/>
<path d="M395.67 291.593C387.707 281.071 381.413 269.401 377.005 256.987C376.749 256.245 376.767 255.436 377.056 254.706C377.344 253.975 377.884 253.37 378.58 252.998L405.827 238.494C406.268 238.258 406.757 238.124 407.258 238.104C407.758 238.084 408.257 238.178 408.716 238.378C409.183 238.579 409.598 238.884 409.928 239.269C410.259 239.654 410.497 240.109 410.624 240.599C413.795 252.561 419.757 263.614 428.026 272.863C428.366 273.239 428.615 273.688 428.755 274.175C428.894 274.661 428.92 275.173 428.831 275.671C428.744 276.162 428.547 276.626 428.252 277.029C427.958 277.431 427.575 277.762 427.133 277.996L399.886 292.5C399.189 292.869 398.382 292.98 397.61 292.814C396.838 292.648 396.151 292.216 395.67 291.593Z" fill="#CCCCCC"/>
<path d="M397.529 290.205C397.676 290.387 397.881 290.512 398.111 290.559C398.341 290.606 398.58 290.572 398.787 290.463L426.034 275.959C426.167 275.89 426.281 275.792 426.369 275.672C426.457 275.552 426.515 275.414 426.54 275.268C426.569 275.113 426.561 274.955 426.517 274.804C426.473 274.653 426.395 274.515 426.288 274.399C417.776 264.878 411.639 253.499 408.374 241.185C408.336 241.032 408.263 240.891 408.161 240.771C408.059 240.652 407.931 240.557 407.786 240.495C407.65 240.435 407.501 240.406 407.352 240.412C407.202 240.419 407.056 240.459 406.925 240.531L379.678 255.034C379.472 255.145 379.311 255.324 379.223 255.54C379.135 255.757 379.126 255.996 379.198 256.218C383.527 268.41 389.709 279.871 397.529 290.205Z" fill="white"/>
<path d="M407.616 259.192L392.776 265.7C392.211 265.947 391.572 265.961 390.997 265.74C390.422 265.519 389.958 265.08 389.709 264.52L389.342 263.693C389.093 263.133 389.079 262.497 389.302 261.926C389.525 261.355 389.966 260.895 390.53 260.647L405.37 254.139C405.935 253.892 406.575 253.878 407.15 254.099C407.725 254.321 408.188 254.759 408.437 255.32L408.805 256.146C409.053 256.706 409.067 257.342 408.844 257.913C408.622 258.484 408.18 258.944 407.616 259.192Z" fill="#CCCCCC"/>
<path d="M413.043 269.205L398.203 275.712C397.638 275.959 396.998 275.973 396.423 275.752C395.848 275.531 395.385 275.092 395.136 274.532L394.769 273.706C394.52 273.145 394.506 272.509 394.729 271.938C394.951 271.367 395.393 270.907 395.957 270.659L410.797 264.151C411.362 263.904 412.002 263.89 412.577 264.111C413.151 264.333 413.615 264.772 413.864 265.332L414.231 266.158C414.48 266.718 414.494 267.354 414.271 267.925C414.048 268.497 413.607 268.957 413.043 269.205Z" fill="#CCCCCC"/>
<path d="M424.487 308.313L391.403 282.384C391.139 282.476 390.871 282.555 390.599 282.62C389.432 282.891 388.22 282.915 387.042 282.691C385.864 282.466 384.747 281.998 383.763 281.317C382.773 280.635 381.94 279.751 381.322 278.724C380.703 277.697 380.313 276.55 380.176 275.361C379.954 273.459 380.386 271.54 381.4 269.912C382.415 268.285 383.953 267.047 385.765 266.397C386.896 265.994 388.101 265.833 389.299 265.924C390.497 266.016 391.662 266.358 392.718 266.927C393.774 267.497 394.697 268.282 395.426 269.231C396.155 270.18 396.675 271.271 396.95 272.433C397.035 272.802 397.094 273.175 397.127 273.552L430.062 292.427L438.259 287.739L447.338 299.548L434.612 308.559C433.122 309.605 431.333 310.146 429.509 310.102C427.685 310.058 425.924 309.43 424.487 308.313Z" fill="#FFB8B8"/>
<path d="M451.375 303.225L432.498 290.472L441.369 277.99C442.547 276.333 444.277 275.142 446.253 274.629C448.229 274.116 450.324 274.314 452.168 275.187C454.033 276.07 455.519 277.586 456.357 279.462C457.195 281.338 457.33 283.45 456.738 285.417L451.375 303.225Z" fill="#FBCF18"/>
<path d="M453.472 241.393C448.578 244.72 442.152 248.141 437.153 244.597C433.871 242.27 432.837 237.962 434.168 234.18C436.561 227.381 443.138 224.387 449.426 222.093C457.601 219.11 466.502 216.736 474.941 218.873C483.381 221.009 490.839 229.126 489.316 237.645C488.09 244.495 481.586 250.195 482.509 257.091C483.439 264.033 491.296 267.686 498.233 268.927C505.17 270.167 512.933 270.566 517.918 275.516C524.278 281.83 522.69 293.117 516.706 299.784C510.721 306.451 501.691 309.473 492.94 311.528C481.346 314.25 468.806 315.68 457.795 311.163C446.784 306.645 438.215 294.485 441.405 283.082C442.752 278.265 445.926 274.194 448.993 270.232C452.061 266.269 455.167 262.125 456.337 257.262C457.312 253.211 456.591 248.506 453.886 245.467C453.394 244.935 453.084 244.262 453.002 243.544C452.919 242.827 453.067 242.101 453.425 241.473L453.472 241.393Z" fill="#2F2E41"/>
<path d="M95.8193 333.302C90.9126 335.015 85.6444 335.445 80.5222 334.548C75.4001 333.652 70.5967 331.46 66.5747 328.184C56.3316 319.643 53.1201 305.573 50.5071 292.544C47.9307 279.698 45.3544 266.852 42.7781 254.007L58.9595 265.076C70.5962 273.036 82.4951 281.251 90.5524 292.78C98.6096 304.31 102.127 320.049 95.6528 332.524" fill="#E6E6E6"/>
<path d="M94.4362 379.959C96.074 368.107 97.758 356.104 96.6092 344.126C95.589 333.488 92.322 323.097 85.6709 314.578C82.1405 310.064 77.8446 306.197 72.9765 303.15C71.7071 302.354 70.5387 304.353 71.8026 305.145C80.2259 310.434 86.7409 318.243 90.4085 327.447C94.4593 337.683 95.1098 348.84 94.4118 359.713C93.9896 366.288 93.0949 372.82 92.1934 379.344C92.1223 379.639 92.1667 379.95 92.3174 380.214C92.4682 380.478 92.7142 380.675 93.0056 380.765C93.303 380.845 93.6199 380.805 93.8877 380.654C94.1555 380.503 94.3526 380.253 94.4362 379.959H94.4362Z" fill="#F2F2F2"/>
<path d="M78.6613 358.988C76.5569 362.165 73.6643 364.751 70.2621 366.495C66.86 368.239 63.0629 369.084 59.2368 368.947C49.4038 368.484 41.2062 361.666 33.8268 355.193L12 336.049L26.4457 335.362C36.8342 334.868 47.4907 334.407 57.3854 337.59C67.2801 340.772 76.4055 348.432 78.2148 358.606" fill="#E6E6E6"/>
<path d="M99.0647 386.772C91.1819 372.915 82.0384 357.515 65.7006 352.593C61.1579 351.229 56.3946 350.74 51.6672 351.153C50.1772 351.281 50.5493 353.563 52.0365 353.435C59.9607 352.782 67.8696 354.86 74.4317 359.321C80.7463 363.591 85.6629 369.528 89.8243 375.823C92.3733 379.679 94.6565 383.698 96.9401 387.713C97.6699 388.996 99.8031 388.07 99.0647 386.772Z" fill="#F2F2F2"/>
<path d="M111.695 401.357C111.43 398.299 110.325 395.373 108.501 392.897C106.677 390.42 104.204 388.488 101.351 387.311V379.3H87.8261V387.563C85.1137 388.798 82.7794 390.725 81.0611 393.148C79.3428 395.571 78.3021 398.404 78.045 401.357L74.8647 438.082H114.875L111.695 401.357Z" fill="#F2F2F2"/>
<path fill-rule="evenodd" clip-rule="evenodd" d="M370.17 137.402L438.831 178.165L411.621 218.067L342.999 177.288L370.17 137.402Z" fill="#DFDFDF"/>
<path fill-rule="evenodd" clip-rule="evenodd" d="M401.848 198.803C402.459 197.48 403.515 196.362 404.883 195.592C406.251 194.822 407.869 194.434 409.533 194.476C411.197 194.518 412.832 194.99 414.23 195.83C415.629 196.671 416.729 197.843 417.392 199.198C418.054 200.554 418.249 202.032 417.951 203.445C417.654 204.859 416.878 206.144 415.721 207.139C414.564 208.134 413.078 208.794 411.452 209.035C409.825 209.277 408.131 209.088 406.584 208.495C404.508 207.698 402.843 206.23 401.955 204.412C401.067 202.594 401.029 200.577 401.848 198.803Z" fill="#FF8364"/>
<path fill-rule="evenodd" clip-rule="evenodd" d="M403.349 205.139L395.763 216.777L403.767 216.51L408.102 221.318L411.315 207.822" fill="#FF8364"/>
<path d="M366.269 154.459L425.234 177.087" stroke="#6BD5E1" stroke-width="3.11" stroke-linecap="round" stroke-linejoin="round"/>
<path d="M360.709 166.397L396.319 180.057" stroke="#6BD5E1" stroke-width="3.11" stroke-linecap="round" stroke-linejoin="round"/>
<path fill-rule="evenodd" clip-rule="evenodd" d="M327 407.504C326.999 406.022 327.467 404.572 328.345 403.338C329.222 402.105 330.47 401.143 331.931 400.574C333.392 400.005 334.999 399.855 336.551 400.142C338.103 400.43 339.529 401.142 340.649 402.189C341.769 403.236 342.532 404.571 342.844 406.024C343.155 407.478 342.999 408.986 342.397 410.357C341.794 411.728 340.772 412.901 339.459 413.727C338.145 414.554 336.6 414.997 335.019 415C333.967 415.003 332.925 414.811 331.952 414.436C330.979 414.06 330.095 413.509 329.35 412.812C328.605 412.116 328.014 411.289 327.611 410.378C327.208 409.467 327 408.491 327 407.504Z" fill="#6BD5E1"/>
<path fill-rule="evenodd" clip-rule="evenodd" d="M292 182.736L322.679 176L335.107 218.364L304.434 225.101L292 182.736Z" fill="#DFDFDF"/>
<path fill-rule="evenodd" clip-rule="evenodd" d="M298.462 187.404L319.57 182.77L321.199 188.321L300.091 192.956L298.462 187.404Z" fill="#FF8364"/>
<path d="M301.862 198.988L322.969 194.348" stroke="#6BD5E1" stroke-width="3.11" stroke-linecap="round" stroke-linejoin="round"/>
<path d="M303.633 205.014L324.747 200.357" stroke="#6BD5E1" stroke-width="3.11" stroke-linecap="round" stroke-linejoin="round"/>
<path d="M305.487 211.298L326.614 206.658" stroke="#6BD5E1" stroke-width="3.11" stroke-linecap="round" stroke-linejoin="round"/>
<path d="M307.258 217.374L315.543 215.557" stroke="#6BD5E1" stroke-width="3.11" stroke-linecap="round" stroke-linejoin="round"/>
<path d="M325.063 213.461L328.385 212.734" stroke="#6BD5E1" stroke-width="3.11" stroke-linecap="round" stroke-linejoin="round"/>
<path d="M159 186.774C159 185.746 159.353 184.741 160.013 183.886C160.673 183.031 161.612 182.364 162.71 181.971C163.809 181.577 165.017 181.474 166.183 181.675C167.349 181.876 168.42 182.371 169.26 183.098C170.101 183.825 170.673 184.751 170.905 185.76C171.137 186.769 171.018 187.814 170.563 188.764C170.108 189.714 169.338 190.526 168.35 191.097C167.361 191.668 166.199 191.973 165.01 191.973C163.416 191.973 161.888 191.426 160.76 190.451C159.633 189.476 159 188.153 159 186.774Z" stroke="#FF8364" stroke-width="3.11" stroke-linecap="round" stroke-linejoin="round"/>
<path d="M349 347.199C349 346.171 349.353 345.166 350.013 344.311C350.673 343.456 351.612 342.789 352.71 342.396C353.809 342.002 355.017 341.899 356.183 342.1C357.349 342.301 358.42 342.796 359.26 343.523C360.101 344.25 360.673 345.176 360.905 346.185C361.137 347.193 361.018 348.239 360.563 349.189C360.108 350.139 359.338 350.951 358.35 351.522C357.361 352.093 356.199 352.398 355.01 352.398C353.416 352.398 351.888 351.85 350.76 350.875C349.633 349.9 349 348.578 349 347.199Z" stroke="#FF8364" stroke-width="3.11" stroke-linecap="round" stroke-linejoin="round"/>
</g>
<defs>
<filter id="filter0_d" x="0" y="0" width="634.25" height="653.729" filterUnits="userSpaceOnUse" color-interpolation-filters="sRGB">
<feFlood flood-opacity="0" result="BackgroundImageFix"/>
<feColorMatrix in="SourceAlpha" type="matrix" values="0 0 0 0 0 0 0 0 0 0 0 0 0 0 0 0 0 0 127 0"/>
<feOffset dx="17" dy="14"/>
<feGaussianBlur stdDeviation="2"/>
<feColorMatrix type="matrix" values="0 0 0 0 0 0 0 0 0 0 0 0 0 0 0 0 0 0 0.25 0"/>
<feBlend mode="normal" in2="BackgroundImageFix" result="effect1_dropShadow"/>
<feBlend mode="normal" in="SourceGraphic" in2="effect1_dropShadow" result="shape"/>
</filter>
<linearGradient id="paint0_linear" x1="443.328" y1="0" x2="443.328" y2="489.652" gradientUnits="userSpaceOnUse">
<stop stop-color="white"/>
<stop offset="1" stop-color="white" stop-opacity="0"/>
</linearGradient>
</defs>
</svg>
