<svg width="708" height="654" viewBox="0 0 708 654" fill="none" xmlns="http://www.w3.org/2000/svg">
<g filter="url(#filter0_d)">
<rect x="224.657" width="437.341" height="489.652" rx="40" transform="rotate(27.3104 224.657 0)" fill="#FFEA2E"/>
<rect x="224.657" width="437.341" height="489.652" rx="40" transform="rotate(27.3104 224.657 0)" fill="url(#paint0_linear)" fill-opacity="0.1"/>
<path fill-rule="evenodd" clip-rule="evenodd" d="M288 374.504C287.999 373.022 288.467 371.572 289.345 370.338C290.222 369.105 291.47 368.143 292.931 367.574C294.392 367.005 295.999 366.855 297.551 367.142C299.103 367.43 300.529 368.142 301.649 369.189C302.769 370.236 303.532 371.571 303.844 373.024C304.155 374.478 303.999 375.986 303.397 377.357C302.794 378.728 301.772 379.901 300.459 380.727C299.145 381.554 297.6 381.997 296.019 382C294.967 382.003 293.925 381.811 292.952 381.436C291.979 381.06 291.095 380.509 290.35 379.812C289.605 379.116 289.014 378.289 288.611 377.378C288.208 376.467 288 375.491 288 374.504Z" fill="#6BD5E1"/>
<path d="M310 314.199C310 313.171 310.353 312.166 311.013 311.311C311.673 310.456 312.612 309.789 313.71 309.396C314.809 309.002 316.017 308.899 317.183 309.1C318.349 309.301 319.42 309.796 320.26 310.523C321.101 311.25 321.673 312.176 321.905 313.185C322.137 314.193 322.018 315.239 321.563 316.189C321.108 317.139 320.338 317.951 319.35 318.522C318.361 319.093 317.199 319.398 316.01 319.398C314.416 319.398 312.888 318.85 311.76 317.875C310.633 316.9 310 315.578 310 314.199Z" stroke="#FF8364" stroke-width="3.11" stroke-linecap="round" stroke-linejoin="round"/>
<path fill-rule="evenodd" clip-rule="evenodd" d="M237.017 234.072L226.854 240.787L225.931 230.059L225.008 219.331L236.085 223.336L247.169 227.338L237.017 234.072Z" fill="#FFD98E"/>
<path d="M233.242 137.811L233.624 167.917C233.634 168.75 233.28 169.552 232.639 170.148C231.999 170.744 231.125 171.085 230.209 171.095L202.154 171.394C201.238 171.402 200.356 171.08 199.7 170.498C199.045 169.916 198.671 169.121 198.659 168.288L198.277 138.182C198.268 137.349 198.622 136.547 199.262 135.951C199.902 135.355 200.776 135.014 201.692 135.004L229.747 134.705C230.663 134.697 231.546 135.019 232.201 135.601C232.856 136.183 233.231 136.978 233.242 137.811Z" fill="#FBCF18"/>
<path d="M287.578 123.267L287.96 153.373C287.97 154.206 287.615 155.008 286.975 155.604C286.335 156.2 285.461 156.541 284.545 156.551L256.49 156.85C255.574 156.859 254.691 156.537 254.036 155.954C253.381 155.372 253.007 154.578 252.995 153.745L252.613 123.638C252.603 122.805 252.958 122.003 253.598 121.407C254.238 120.811 255.112 120.471 256.028 120.46L284.083 120.162C284.999 120.153 285.882 120.475 286.537 121.057C287.192 121.639 287.567 122.434 287.578 123.267Z" fill="#CCCCCC"/>
<path d="M243.273 81.1417L243.655 111.248C243.665 112.081 243.311 112.883 242.671 113.479C242.03 114.075 241.156 114.416 240.24 114.426L212.185 114.725C211.269 114.734 210.387 114.412 209.732 113.829C209.076 113.247 208.702 112.453 208.69 111.62L208.308 81.5135C208.299 80.6805 208.653 79.878 209.293 79.2821C209.934 78.6862 210.807 78.3455 211.723 78.3348L239.779 78.0365C240.695 78.0277 241.577 78.3497 242.232 78.9318C242.887 79.5139 243.262 80.3087 243.273 81.1417Z" fill="#FF6584"/>
<path d="M301.6 204.176L320.918 194.445" stroke="#6BD5E1" stroke-width="3.11" stroke-linecap="round" stroke-linejoin="round"/>
<path d="M519.261 407.525V496.764H307.344C283.199 496.764 263.554 476.747 263.554 452.145C263.554 427.542 283.199 407.525 307.344 407.525H519.261Z" fill="#F2F2F2"/>
<path d="M524.466 496.078C524.466 496.988 524.123 497.861 523.513 498.505C522.903 499.148 522.076 499.51 521.213 499.51H303.57C291.749 499.51 280.413 494.556 272.054 485.738C263.696 476.919 259 464.959 259 452.488C259 440.017 263.696 428.057 272.054 419.238C280.413 410.42 291.749 405.466 303.57 405.466H521.213C522.076 405.466 522.903 405.827 523.514 406.471C524.124 407.115 524.466 407.988 524.466 408.898C524.466 409.808 524.124 410.681 523.514 411.325C522.903 411.969 522.076 412.33 521.213 412.33H303.57C293.475 412.33 283.793 416.561 276.655 424.092C269.517 431.623 265.507 441.838 265.507 452.488C265.507 463.139 269.517 473.353 276.655 480.884C283.793 488.415 293.475 492.646 303.57 492.646H521.213C522.076 492.646 522.903 493.008 523.513 493.651C524.123 494.295 524.466 495.168 524.466 496.078Z" fill="#FBCF18"/>
<path d="M519.261 428.119H291.532C291.36 428.119 291.194 428.047 291.072 427.918C290.95 427.789 290.882 427.615 290.882 427.433C290.882 427.25 290.95 427.076 291.072 426.947C291.194 426.818 291.36 426.746 291.532 426.746H519.261C519.434 426.746 519.599 426.818 519.721 426.947C519.843 427.076 519.912 427.25 519.912 427.433C519.912 427.615 519.843 427.789 519.721 427.918C519.599 428.047 519.434 428.119 519.261 428.119Z" fill="#CCCCCC"/>
<path d="M519.261 444.594H291.532C291.36 444.594 291.194 444.521 291.072 444.393C290.95 444.264 290.882 444.089 290.882 443.907C290.882 443.725 290.95 443.551 291.072 443.422C291.194 443.293 291.36 443.221 291.532 443.221H519.261C519.434 443.221 519.599 443.293 519.721 443.422C519.843 443.551 519.912 443.725 519.912 443.907C519.912 444.089 519.843 444.264 519.721 444.393C519.599 444.521 519.434 444.594 519.261 444.594Z" fill="#CCCCCC"/>
<path d="M519.261 461.069H291.532C291.36 461.069 291.194 460.996 291.072 460.868C290.95 460.739 290.882 460.564 290.882 460.382C290.882 460.2 290.95 460.026 291.072 459.897C291.194 459.768 291.36 459.696 291.532 459.696H519.261C519.434 459.696 519.599 459.768 519.721 459.897C519.843 460.026 519.912 460.2 519.912 460.382C519.912 460.564 519.843 460.739 519.721 460.868C519.599 460.996 519.434 461.069 519.261 461.069Z" fill="#CCCCCC"/>
<path d="M519.261 477.544H291.532C291.36 477.544 291.194 477.471 291.072 477.343C290.95 477.214 290.882 477.039 290.882 476.857C290.882 476.675 290.95 476.501 291.072 476.372C291.194 476.243 291.36 476.171 291.532 476.171H519.261C519.434 476.171 519.599 476.243 519.721 476.372C519.843 476.501 519.912 476.675 519.912 476.857C519.912 477.039 519.843 477.214 519.721 477.343C519.599 477.471 519.434 477.544 519.261 477.544Z" fill="#CCCCCC"/>
<path d="M683.042 424.323L629.972 493.812L464.956 353.534C446.155 337.552 442.762 308.961 457.393 289.803C472.024 270.646 499.225 268.063 518.026 284.045L683.042 424.323Z" fill="#F2F2F2"/>
<path d="M634.433 496.723C633.891 497.431 633.105 497.884 632.247 497.981C631.39 498.079 630.53 497.813 629.858 497.242L460.384 353.174C451.179 345.349 445.298 333.987 444.034 321.588C442.769 309.188 446.226 296.767 453.642 287.056C461.059 277.345 471.828 271.14 483.581 269.806C495.334 268.472 507.107 272.119 516.312 279.943L685.786 424.011C686.119 424.294 686.396 424.643 686.601 425.039C686.806 425.435 686.935 425.869 686.981 426.317C687.027 426.766 686.989 427.219 686.868 427.652C686.748 428.084 686.548 428.488 686.28 428.839C686.012 429.19 685.681 429.482 685.305 429.698C684.93 429.914 684.519 430.05 684.094 430.098C683.669 430.146 683.239 430.105 682.829 429.978C682.419 429.851 682.037 429.64 681.704 429.357L512.229 285.289C508.337 281.977 503.865 279.508 499.068 278.02C494.271 276.533 489.244 276.057 484.272 276.62C479.301 277.184 474.484 278.775 470.096 281.302C465.707 283.83 461.834 287.245 458.697 291.353C455.56 295.46 453.221 300.18 451.813 305.241C450.405 310.303 449.956 315.607 450.492 320.852C451.028 326.096 452.538 331.178 454.935 335.807C457.333 340.436 460.572 344.521 464.466 347.829L633.941 491.897C634.612 492.468 635.041 493.297 635.134 494.202C635.226 495.107 634.974 496.014 634.433 496.723Z" fill="#CCCCCC"/>
<path d="M670.795 440.359L493.467 289.615C493.401 289.558 493.345 289.488 493.304 289.409C493.263 289.33 493.237 289.243 493.228 289.153C493.219 289.064 493.227 288.973 493.251 288.887C493.275 288.8 493.315 288.719 493.369 288.649C493.422 288.579 493.488 288.521 493.563 288.478C493.638 288.434 493.721 288.407 493.806 288.397C493.891 288.388 493.977 288.396 494.059 288.421C494.141 288.447 494.217 288.489 494.284 288.545L671.611 439.289C671.678 439.346 671.733 439.416 671.774 439.495C671.815 439.574 671.841 439.661 671.85 439.751C671.86 439.84 671.852 439.931 671.828 440.018C671.804 440.104 671.764 440.185 671.71 440.255C671.657 440.326 671.59 440.384 671.515 440.427C671.44 440.47 671.358 440.498 671.273 440.507C671.188 440.517 671.102 440.509 671.02 440.483C670.938 440.458 670.861 440.415 670.795 440.359V440.359Z" fill="#CCCCCC"/>
<path d="M660.997 453.188L483.67 302.444C483.535 302.33 483.45 302.164 483.431 301.983C483.413 301.802 483.464 301.621 483.572 301.479C483.68 301.338 483.837 301.247 484.008 301.228C484.18 301.208 484.352 301.261 484.486 301.375L661.814 452.119C661.88 452.176 661.936 452.245 661.977 452.324C662.018 452.404 662.044 452.491 662.053 452.58C662.062 452.67 662.055 452.761 662.03 452.847C662.006 452.934 661.966 453.015 661.913 453.085C661.859 453.155 661.793 453.213 661.718 453.257C661.643 453.3 661.56 453.327 661.475 453.337C661.39 453.346 661.304 453.338 661.222 453.313C661.14 453.287 661.064 453.245 660.997 453.188Z" fill="#CCCCCC"/>
<path d="M651.2 466.017L473.872 315.273C473.738 315.159 473.652 314.993 473.633 314.812C473.615 314.631 473.665 314.449 473.774 314.308C473.882 314.166 474.039 314.075 474.211 314.056C474.382 314.036 474.554 314.089 474.689 314.204L652.016 464.948C652.083 465.004 652.138 465.074 652.179 465.153C652.22 465.232 652.246 465.319 652.255 465.409C652.264 465.498 652.256 465.589 652.232 465.676C652.208 465.762 652.168 465.843 652.115 465.913C652.061 465.983 651.995 466.041 651.92 466.085C651.845 466.128 651.763 466.155 651.678 466.165C651.593 466.174 651.507 466.166 651.425 466.141C651.343 466.115 651.266 466.073 651.2 466.017V466.017Z" fill="#CCCCCC"/>
<path d="M641.402 478.845L464.074 328.101C464.008 328.044 463.952 327.974 463.911 327.895C463.87 327.816 463.845 327.729 463.836 327.64C463.826 327.55 463.834 327.459 463.858 327.373C463.882 327.286 463.922 327.206 463.976 327.136C464.029 327.065 464.096 327.007 464.171 326.964C464.246 326.921 464.328 326.893 464.413 326.884C464.498 326.874 464.584 326.882 464.666 326.908C464.748 326.933 464.824 326.975 464.891 327.032L642.218 477.776C642.285 477.832 642.34 477.902 642.381 477.981C642.423 478.06 642.448 478.147 642.458 478.237C642.467 478.327 642.459 478.417 642.435 478.504C642.411 478.591 642.371 478.671 642.317 478.742C642.264 478.812 642.198 478.87 642.122 478.913C642.047 478.957 641.965 478.984 641.88 478.993C641.795 479.003 641.709 478.995 641.627 478.969C641.545 478.944 641.468 478.902 641.402 478.845Z" fill="#CCCCCC"/>
<path d="M518.703 500H298.297C298.218 500 298.143 499.947 298.087 499.854C298.031 499.76 298 499.633 298 499.5C298 499.367 298.031 499.24 298.087 499.146C298.143 499.053 298.218 499 298.297 499H518.703C518.782 499 518.857 499.053 518.913 499.146C518.969 499.24 519 499.367 519 499.5C519 499.633 518.969 499.76 518.913 499.854C518.857 499.947 518.782 500 518.703 500Z" fill="#CCCCCC"/>
<path d="M430.751 398.145L423.312 398.144L419.775 367.874L430.753 367.875L430.751 398.145Z" fill="#FFB8B8"/>
<path d="M417.999 395.902H432.344V405.431H408.967C408.967 404.18 409.2 402.941 409.654 401.784C410.108 400.628 410.773 399.578 411.612 398.693C412.451 397.808 413.446 397.106 414.542 396.627C415.638 396.148 416.813 395.902 417.999 395.902Z" fill="#2F2E41"/>
<path d="M354.758 398.145L347.319 398.144L343.782 367.874L354.76 367.875L354.758 398.145Z" fill="#FFB8B8"/>
<path d="M342.006 395.902H356.352V405.431H332.974C332.974 404.18 333.208 402.941 333.661 401.784C334.115 400.628 334.781 399.578 335.619 398.693C336.458 397.808 337.454 397.106 338.55 396.627C339.646 396.148 340.82 395.902 342.006 395.902Z" fill="#2F2E41"/>
<path d="M379.603 173.613V170.18C379.603 164.309 381.814 158.678 385.749 154.526C389.684 150.374 395.021 148.042 400.587 148.042H400.587C406.152 148.042 411.489 150.374 415.424 154.526C419.359 158.678 421.57 164.309 421.57 170.18V173.613C421.57 177.845 419.976 181.905 417.139 184.898C414.302 187.891 410.455 189.573 406.442 189.573H394.731C392.744 189.573 390.777 189.16 388.942 188.358C387.106 187.556 385.439 186.38 384.034 184.898C382.629 183.416 381.515 181.657 380.755 179.72C379.994 177.784 379.603 175.708 379.603 173.613Z" fill="#2F2E41"/>
<path d="M400.586 190.754C409.412 190.754 416.567 183.205 416.567 173.894C416.567 164.582 409.412 157.034 400.586 157.034C391.761 157.034 384.606 164.582 384.606 173.894C384.606 183.205 391.761 190.754 400.586 190.754Z" fill="#FFB8B8"/>
<path d="M313.662 231.84C314.31 231.194 315.085 230.706 315.932 230.41C316.778 230.114 317.676 230.017 318.562 230.127C319.448 230.237 320.3 230.55 321.059 231.045C321.818 231.54 322.464 232.204 322.953 232.991L336.652 230.257L340.258 238.635L320.86 242.209C319.553 242.988 318.019 243.234 316.552 242.9C315.084 242.566 313.783 241.676 312.895 240.398C312.008 239.12 311.596 237.543 311.737 235.965C311.878 234.388 312.563 232.92 313.662 231.84V231.84Z" fill="#FFB8B8"/>
<path d="M388.127 201.372L388.306 201.658L365.842 217.271L327.936 230.042C327.434 230.212 327.003 230.561 326.717 231.029C326.43 231.496 326.307 232.054 326.367 232.608L327.194 240.122C327.23 240.455 327.333 240.775 327.494 241.064C327.655 241.352 327.871 241.602 328.129 241.797C328.387 241.992 328.681 242.129 328.991 242.197C329.302 242.265 329.623 242.264 329.933 242.194L365.608 234.126C367.335 233.738 368.967 232.98 370.405 231.899L395.642 212.954C396.557 212.264 397.287 211.335 397.761 210.259C398.235 209.183 398.437 207.995 398.348 206.812C398.255 205.628 397.872 204.489 397.236 203.508C396.599 202.527 395.732 201.738 394.719 201.217C393.706 200.697 392.582 200.465 391.457 200.542C390.333 200.619 389.247 201.004 388.306 201.658L388.127 201.372Z" fill="#CCCCCC"/>
<path d="M423.445 389.555C422.874 389.555 422.316 389.38 421.838 389.051C421.36 388.721 420.983 388.252 420.753 387.701L386.652 298.804C386.573 298.611 386.439 298.449 386.269 298.338C386.1 298.228 385.902 298.175 385.703 298.187C385.504 298.199 385.313 298.275 385.156 298.405C384.999 298.534 384.884 298.712 384.825 298.913L357.004 385.457C356.887 385.859 356.692 386.233 356.433 386.553C356.174 386.874 355.855 387.135 355.497 387.321C355.139 387.507 354.748 387.613 354.349 387.634C353.95 387.655 353.551 387.589 353.177 387.441L343.848 383.75C343.342 383.552 342.897 383.209 342.565 382.76C342.232 382.311 342.024 381.774 341.963 381.207C337.766 342.634 374.366 245.268 374.736 244.29L374.838 244.019L408.202 251.805L408.271 251.885C421.582 267.205 432.523 363.833 434.582 383.048C434.658 383.743 434.509 384.443 434.157 385.036C433.806 385.628 433.274 386.076 432.648 386.307L424.414 389.379C424.103 389.496 423.775 389.555 423.445 389.555Z" fill="#2F2E41"/>
<path d="M394.699 254.939C386.616 254.939 377.604 253.239 374.83 246.221L374.766 246.059L374.852 245.91C377.042 242.12 379.936 235.654 378.38 234.44C375.316 232.05 373.829 228.118 373.961 222.753C374.248 211.107 381.769 200.767 392.678 197.023H392.678C395.723 195.995 398.821 195.153 401.958 194.502C404.245 194.015 406.606 194.069 408.871 194.659C411.135 195.249 413.248 196.361 415.057 197.915C416.889 199.479 418.37 201.452 419.393 203.692C420.417 205.931 420.957 208.383 420.976 210.869C421.09 223.315 419.274 240.65 409.972 252.551C409.536 253.103 408.929 253.475 408.259 253.602C403.783 254.456 399.247 254.903 394.699 254.939Z" fill="#CCCCCC"/>
<path d="M391.692 254.473C392.132 252.808 393.177 251.394 394.6 250.537C396.023 249.681 397.708 249.451 399.291 249.898C399.614 249.994 399.929 250.117 400.233 250.266L410.635 240.279L417.869 245.421L402.993 259.309C402.322 260.586 401.264 261.59 399.989 262.161C398.715 262.731 397.295 262.836 395.958 262.457C395.179 262.232 394.45 261.847 393.813 261.322C393.175 260.798 392.643 260.146 392.247 259.404C391.85 258.661 391.597 257.843 391.502 256.997C391.406 256.151 391.471 255.293 391.692 254.473Z" fill="#FFB8B8"/>
<path d="M408.987 254.6C408.312 254.6 407.658 254.354 407.136 253.903L403.034 250.367C402.692 250.072 402.417 249.699 402.231 249.277C402.045 248.854 401.952 248.393 401.959 247.927C401.966 247.461 402.072 247.003 402.271 246.587C402.469 246.17 402.754 245.807 403.105 245.523L420.309 231.602C420.513 231.436 420.647 231.192 420.681 230.923C420.716 230.654 420.648 230.381 420.493 230.164L409.875 215.353C408.641 213.638 408.022 211.518 408.128 209.368C408.233 207.218 409.057 205.176 410.452 203.605C411.921 201.931 413.934 200.9 416.09 200.718C418.246 200.536 420.388 201.216 422.091 202.623L422.158 202.698L433.246 219.449C434.445 220.441 435.411 221.712 436.067 223.162C436.724 224.613 437.054 226.204 437.031 227.811C437.008 229.419 436.634 230.999 435.937 232.428C435.239 233.857 434.238 235.097 433.012 236.051L410.73 253.994C410.225 254.388 409.614 254.6 408.987 254.6Z" fill="#CCCCCC"/>
<path d="M386.431 169.15V160.785L400.586 154.264L414.084 160.785V169.15C414.084 169.514 413.947 169.864 413.703 170.121C413.458 170.379 413.127 170.523 412.782 170.523H387.732C387.387 170.523 387.056 170.379 386.812 170.121C386.568 169.864 386.431 169.514 386.431 169.15Z" fill="#2F2E41"/>
<path d="M399.937 149.152C397.855 142.124 402.226 134.069 408.688 131.287C415.15 128.505 422.881 130.45 428.334 135.046C433.787 139.642 437.17 146.526 438.962 153.643C440.755 160.759 441.095 168.18 441.426 175.535C449.365 177.073 454.766 187.008 452.016 195.015C449.265 203.022 439.086 207 432.055 202.815C425.025 198.63 422.988 187.38 428.062 180.757C430.463 177.622 431.804 173.733 431.873 169.704C431.942 165.675 430.735 161.736 428.443 158.513C426.151 155.289 422.905 152.964 419.22 151.907C415.534 150.849 411.619 151.119 408.095 152.674C404.182 154.4 399.273 149.915 399.937 149.152Z" fill="#2F2E41"/>
<path d="M257.723 374.588C257.545 381.829 256.435 389.006 254.424 395.908C254.378 396.069 254.33 396.226 254.282 396.387H241.971C241.984 396.243 241.997 396.083 242.01 395.908C242.831 385.602 247.564 322.875 241.905 312.147C242.4 313.018 258.677 341.84 257.723 374.588Z" fill="#E6E6E6"/>
<path d="M256.799 395.908C256.696 396.068 256.589 396.229 256.479 396.386H247.244C247.314 396.25 247.395 396.09 247.489 395.908C249.015 392.901 253.531 383.909 257.723 374.588C262.228 364.571 266.36 354.174 266.012 350.411C266.12 351.259 269.237 377.132 256.799 395.908Z" fill="#E6E6E6"/>
<path d="M258 395H28V397H258V395Z" fill="#E6E6E6"/>
<path d="M163.593 434.962L165.313 419.468L213.893 405.851L208.304 387.539C212.197 375.344 219.032 369.365 231.52 375.331L252.999 389.905C255.087 391.321 256.788 393.324 257.923 395.704C259.059 398.084 259.588 400.754 259.456 403.434C259.324 406.125 258.53 408.727 257.157 410.965C255.784 413.204 253.883 414.996 251.655 416.153C227.609 428.602 196.961 433.365 163.593 434.962Z" fill="#FFB8B8"/>
<path d="M166.603 439.658L151.556 437.31L137.482 440.447C136.62 440.639 135.729 440.625 134.873 440.404C134.016 440.184 133.214 439.763 132.52 439.171C131.827 438.578 131.26 437.829 130.858 436.974C130.457 436.119 130.229 435.179 130.193 434.218C130.152 433.144 130.35 432.076 130.771 431.104C131.192 430.132 131.822 429.286 132.608 428.64L154.662 410.492C156.554 408.936 158.891 408.167 161.255 408.323C163.619 408.479 165.854 409.55 167.56 411.345L173.051 417.12C169.122 419.783 166.199 423.778 164.453 429.328C168.23 431.596 168.946 435.039 166.603 439.658Z" fill="#2F2E41"/>
<path d="M180.974 276.981C188.659 276.981 194.89 270.177 194.89 261.783C194.89 253.389 188.659 246.585 180.974 246.585C173.288 246.585 167.058 253.389 167.058 261.783C167.058 270.177 173.288 276.981 180.974 276.981Z" fill="#FFB8B8"/>
<path d="M202.715 291.754L171.546 306.075C174.08 292.184 175.342 279.53 171.546 271.799L191.537 269.217C190.545 275.158 195.603 283.114 202.715 291.754Z" fill="#FFB8B8"/>
<path d="M149.836 434.493L138.228 433.554C131.117 401.168 127.476 370.557 129.065 342.62C129.29 338.542 130.952 334.717 133.703 331.948C136.454 329.179 140.08 327.682 143.82 327.77C147.414 327.859 150.849 329.409 153.453 332.115L168.464 347.716C175.158 354.619 180.354 363.069 183.673 372.448C187.924 384.609 186.398 391.426 176.249 390.268C169.907 389.496 164.075 386.109 159.942 380.799L148.976 366.88L149.836 434.493Z" fill="#FFB8B8"/>
<path d="M140.847 472.977C139.325 472.869 137.847 472.379 136.527 471.546C135.207 470.714 134.08 469.56 133.233 468.175C132.387 466.79 131.844 465.211 131.646 463.56C131.448 461.909 131.601 460.23 132.093 458.654L134.359 451.396L136.079 433.084C138.728 427.18 142.479 428.064 146.827 432.615C149.59 432.318 150.184 429.3 149.836 425.102L158.551 437.916C159.297 439.012 159.76 440.307 159.892 441.666C160.024 443.024 159.82 444.396 159.301 445.639L150.529 466.653C149.694 468.655 148.32 470.333 146.59 471.462C144.861 472.592 142.858 473.12 140.847 472.977Z" fill="#2F2E41"/>
<path d="M250.651 388.244C234.744 398.104 229.758 398.39 213.893 405.382L200.136 396.93C183.979 403.455 172.645 394.51 160.369 381.201C168.402 366.586 164.849 347.596 169.827 347.864L229.37 368.288L231.949 375.331L250.651 388.244Z" fill="#2F2E41"/>
<path d="M231.519 372.984C210.495 382.923 187.858 372.4 168.537 349.272L155.744 292.843C155.592 292.221 155.559 291.572 155.646 290.936C155.734 290.3 155.939 289.69 156.25 289.144C156.562 288.598 156.972 288.128 157.456 287.761C157.94 287.395 158.488 287.141 159.065 287.015L173.911 283.772L181.22 296.45L195.837 282.364L211.36 287.906C213.424 288.643 215.266 289.979 216.689 291.77C218.112 293.562 219.062 295.742 219.439 298.077L231.519 372.984Z" fill="#FBCF18"/>
<path opacity="0.2" d="M198.125 420.822C196.991 420.35 195.976 419.588 195.167 418.599C194.358 417.61 193.778 416.424 193.475 415.14C193.173 413.855 193.157 412.51 193.429 411.218C193.7 409.926 194.252 408.723 195.037 407.712L204.865 395.052L211.744 399.278L208.202 415.049C207.945 416.19 207.47 417.259 206.807 418.184C206.143 419.11 205.308 419.87 204.355 420.416C203.402 420.962 202.354 421.281 201.28 421.351C200.206 421.421 199.131 421.241 198.125 420.822Z" fill="black"/>
<path d="M198.125 418.944C196.991 418.472 195.976 417.71 195.167 416.721C194.358 415.732 193.778 414.546 193.475 413.262C193.173 411.977 193.157 410.633 193.429 409.34C193.7 408.048 194.252 406.845 195.037 405.834L204.865 393.174L211.744 397.4L208.201 413.171C207.945 414.312 207.47 415.381 206.807 416.306C206.143 417.232 205.308 417.993 204.355 418.538C203.402 419.084 202.354 419.403 201.28 419.473C200.206 419.543 199.131 419.363 198.125 418.944Z" fill="#FFB8B8"/>
<path d="M213.463 401.156L203.145 393.644L218.192 349.977L212.603 288.468L217.702 291.948C220.438 293.816 222.798 296.271 224.639 299.165C226.48 302.059 227.764 305.331 228.413 308.783L236.679 352.794C233.062 373.08 227.033 390.929 213.463 401.156Z" fill="#FBCF18"/>
<path opacity="0.2" d="M207.229 331.43L212.389 359.602L208.145 376.078L207.229 331.43Z" fill="black"/>
<path d="M167.365 260.48C167.365 260.48 159.345 231.817 183.854 237.829C187.655 238.761 190.939 241.175 193.552 244.331C193.786 244.607 194.073 244.824 194.392 244.966C194.711 245.109 195.054 245.173 195.398 245.155C199.313 245.155 201.732 260.435 193.901 267.154C193.901 267.154 195.499 258.112 192.595 255.031C192.073 254.51 191.636 253.895 191.302 253.213C189.412 249.049 183.058 247.682 178.676 248.037C176.439 248.218 176.243 252.478 173.767 251.883C168.132 250.529 166.333 257.658 167.365 260.48Z" fill="#2F2E41"/>
<path d="M192.032 303.022L191.87 304.32L190.869 312.327L189.229 325.441L188.818 328.724C188.787 328.975 188.673 329.205 188.499 329.371C188.324 329.537 188.101 329.629 187.869 329.629H176.932C176.701 329.629 176.477 329.538 176.303 329.372C176.129 329.206 176.015 328.977 175.983 328.727L175.565 325.441L173.898 312.327L172.878 304.314L172.715 303.024C172.696 302.876 172.706 302.725 172.745 302.582C172.784 302.439 172.851 302.306 172.941 302.193C173.031 302.08 173.142 301.99 173.266 301.928C173.391 301.866 173.526 301.834 173.663 301.834H191.083C191.22 301.834 191.355 301.866 191.48 301.928C191.604 301.99 191.715 302.08 191.805 302.192C191.895 302.305 191.962 302.437 192.001 302.58C192.04 302.723 192.051 302.874 192.032 303.022Z" fill="#E6E6E6"/>
<path d="M174.817 298.36H189.986C190.112 298.36 190.236 298.387 190.352 298.44C190.469 298.493 190.574 298.57 190.663 298.667C190.752 298.764 190.823 298.879 190.871 299.006C190.919 299.133 190.944 299.269 190.944 299.407V300.789C190.944 301.066 190.843 301.332 190.663 301.528C190.483 301.725 190.24 301.835 189.986 301.835H174.817C174.563 301.835 174.32 301.725 174.14 301.528C173.96 301.332 173.859 301.066 173.859 300.789V299.407C173.859 299.269 173.884 299.133 173.932 299.006C173.98 298.879 174.051 298.764 174.14 298.667C174.229 298.57 174.334 298.493 174.451 298.44C174.567 298.387 174.691 298.36 174.817 298.36Z" fill="#3F3D56"/>
<path d="M193.403 303.571C186.091 304.443 178.713 304.443 171.401 303.571C171.275 303.571 171.15 303.544 171.034 303.492C170.918 303.439 170.812 303.362 170.723 303.265C170.634 303.168 170.564 303.053 170.516 302.926C170.468 302.799 170.443 302.663 170.443 302.525V301.143C170.443 301.006 170.468 300.87 170.516 300.743C170.564 300.616 170.634 300.501 170.723 300.404C170.812 300.306 170.918 300.229 171.034 300.177C171.15 300.124 171.275 300.097 171.401 300.097C178.707 301.078 186.096 301.078 193.403 300.097C193.657 300.097 193.901 300.207 194.08 300.404C194.26 300.6 194.361 300.866 194.361 301.143V302.525C194.361 302.803 194.26 303.069 194.08 303.265C193.901 303.461 193.657 303.571 193.403 303.571Z" fill="#3F3D56"/>
<path d="M181.958 319.626C184.241 319.626 186.092 317.605 186.092 315.111C186.092 312.617 184.241 310.596 181.958 310.596C179.674 310.596 177.823 312.617 177.823 315.111C177.823 317.605 179.674 319.626 181.958 319.626Z" fill="white"/>
<path d="M192.586 324.61C192.712 325.929 192.546 327.262 192.103 328.496C191.659 329.731 190.951 330.831 190.038 331.705C189.124 332.579 188.032 333.201 186.854 333.518C185.675 333.836 184.443 333.84 183.263 333.53L168.486 329.656L168.839 321.045L183.326 317.389C184.374 317.125 185.462 317.106 186.517 317.336C187.572 317.565 188.571 318.037 189.447 318.72C190.322 319.403 191.055 320.281 191.596 321.296C192.138 322.312 192.475 323.441 192.586 324.61Z" fill="#FFB8B8"/>
<path d="M172.621 331.195L132.742 332.284C131.302 332.324 129.872 332.02 128.551 331.394C127.23 330.767 126.05 329.834 125.093 328.659C124.136 327.484 123.425 326.095 123.009 324.589C122.594 323.083 122.485 321.496 122.688 319.94C123.007 317.5 124.079 315.253 125.727 313.569L144.504 294.385C147.986 290.827 152.325 288.428 157.012 287.468L163.593 286.12L167.462 318.048L145.107 315.231L171.332 318.518L172.621 331.195Z" fill="#FBCF18"/>
<path d="M120.083 424.885H18.2722C17.3668 424.885 16.4985 424.493 15.8583 423.793C15.2181 423.094 14.8584 422.146 14.8584 421.157C51.7649 416.472 87.9778 416.472 123.497 421.157C123.497 422.146 123.137 423.094 122.497 423.793C121.857 424.493 120.989 424.885 120.083 424.885Z" fill="#2F2E41"/>
<path d="M123.497 421.376L14.8584 421.157L27.4492 398.019L27.5095 397.909V346.916C27.5094 346.297 27.621 345.684 27.8379 345.112C28.0547 344.54 28.3726 344.021 28.7733 343.583C29.1741 343.145 29.6498 342.798 30.1734 342.561C30.697 342.324 31.2582 342.203 31.8249 342.203H105.928C106.495 342.203 107.056 342.324 107.58 342.561C108.103 342.798 108.579 343.145 108.98 343.583C109.38 344.021 109.698 344.54 109.915 345.112C110.132 345.684 110.244 346.297 110.243 346.916V398.26L123.497 421.376Z" fill="#3F3D56"/>
<path d="M31.7264 345.492C31.3538 345.493 30.9965 345.655 30.733 345.942C30.4694 346.23 30.3212 346.62 30.3208 347.027V393.523C30.3212 393.93 30.4695 394.32 30.733 394.608C30.9965 394.895 31.3538 395.057 31.7264 395.058H106.629C107.002 395.057 107.359 394.895 107.622 394.608C107.886 394.32 108.034 393.93 108.035 393.523V347.027C108.034 346.62 107.886 346.23 107.622 345.942C107.359 345.655 107.002 345.493 106.629 345.492L31.7264 345.492Z" fill="white"/>
<path d="M32.2185 401.199C32.1033 401.199 31.9906 401.236 31.8936 401.303C31.7966 401.371 31.7194 401.468 31.6711 401.582L27.7915 410.793C27.7493 410.894 27.7308 411.004 27.7378 411.114C27.7448 411.224 27.777 411.33 27.8315 411.423C27.886 411.516 27.961 411.593 28.0497 411.646C28.1383 411.699 28.2377 411.726 28.3387 411.726H109.925C110.028 411.726 110.129 411.698 110.219 411.643C110.308 411.589 110.384 411.51 110.438 411.414C110.492 411.319 110.522 411.21 110.527 411.098C110.532 410.986 110.51 410.875 110.464 410.774L106.247 401.563C106.197 401.453 106.12 401.361 106.025 401.297C105.93 401.233 105.82 401.199 105.708 401.199L32.2185 401.199Z" fill="#2F2E41"/>
<path d="M110.243 397.142V398.019H27.4492L27.5112 397.909V397.142H110.243Z" fill="#2F2E41"/>
</g>
<defs>
<filter id="filter0_d" x="0" y="0" width="708" height="653.729" filterUnits="userSpaceOnUse" color-interpolation-filters="sRGB">
<feFlood flood-opacity="0" result="BackgroundImageFix"/>
<feColorMatrix in="SourceAlpha" type="matrix" values="0 0 0 0 0 0 0 0 0 0 0 0 0 0 0 0 0 0 127 0"/>
<feOffset dx="17" dy="14"/>
<feGaussianBlur stdDeviation="2"/>
<feColorMatrix type="matrix" values="0 0 0 0 0 0 0 0 0 0 0 0 0 0 0 0 0 0 0.25 0"/>
<feBlend mode="normal" in2="BackgroundImageFix" result="effect1_dropShadow"/>
<feBlend mode="normal" in="SourceGraphic" in2="effect1_dropShadow" result="shape"/>
</filter>
<linearGradient id="paint0_linear" x1="443.328" y1="0" x2="443.328" y2="489.652" gradientUnits="userSpaceOnUse">
<stop stop-color="white"/>
<stop offset="1" stop-color="white" stop-opacity="0"/>
</linearGradient>
</defs>
</svg>
