<svg width="59" height="58" viewBox="0 0 59 58" fill="none" xmlns="http://www.w3.org/2000/svg">
<g filter="url(#filter0_d)">
<path d="M54.5 25C54.5 38.8071 43.3071 50 29.5 50C15.6929 50 4.5 38.8071 4.5 25C4.5 11.1929 15.6929 0 29.5 0C43.3071 0 54.5 11.1929 54.5 25Z" fill="#FBCF18"/>
<path d="M53.5 25C53.5 38.2548 42.7548 49 29.5 49C16.2452 49 5.5 38.2548 5.5 25C5.5 11.7452 16.2452 1 29.5 1C42.7548 1 53.5 11.7452 53.5 25Z" stroke="black" stroke-width="2"/>
</g>
<g filter="url(#filter1_d)">
<path d="M35.5 13H32.5C31.1739 13 29.9021 13.5268 28.9645 14.4645C28.0268 15.4021 27.5 16.6739 27.5 18V21H24.5V25H27.5V33H31.5V25H34.5L35.5 21H31.5V18C31.5 17.7348 31.6054 17.4804 31.7929 17.2929C31.9804 17.1054 32.2348 17 32.5 17H35.5V13Z" stroke="black" stroke-width="2" stroke-linecap="round" stroke-linejoin="round"/>
</g>
<defs>
<filter id="filter0_d" x="0.5" y="0" width="58" height="58" filterUnits="userSpaceOnUse" color-interpolation-filters="sRGB">
<feFlood flood-opacity="0" result="BackgroundImageFix"/>
<feColorMatrix in="SourceAlpha" type="matrix" values="0 0 0 0 0 0 0 0 0 0 0 0 0 0 0 0 0 0 127 0"/>
<feOffset dy="4"/>
<feGaussianBlur stdDeviation="2"/>
<feColorMatrix type="matrix" values="0 0 0 0 0 0 0 0 0 0 0 0 0 0 0 0 0 0 0.25 0"/>
<feBlend mode="normal" in2="BackgroundImageFix" result="effect1_dropShadow"/>
<feBlend mode="normal" in="SourceGraphic" in2="effect1_dropShadow" result="shape"/>
</filter>
<filter id="filter1_d" x="19.5" y="12" width="21" height="30" filterUnits="userSpaceOnUse" color-interpolation-filters="sRGB">
<feFlood flood-opacity="0" result="BackgroundImageFix"/>
<feColorMatrix in="SourceAlpha" type="matrix" values="0 0 0 0 0 0 0 0 0 0 0 0 0 0 0 0 0 0 127 0"/>
<feOffset dy="4"/>
<feGaussianBlur stdDeviation="2"/>
<feColorMatrix type="matrix" values="0 0 0 0 0 0 0 0 0 0 0 0 0 0 0 0 0 0 0.25 0"/>
<feBlend mode="normal" in2="BackgroundImageFix" result="effect1_dropShadow"/>
<feBlend mode="normal" in="SourceGraphic" in2="effect1_dropShadow" result="shape"/>
</filter>
</defs>
</svg>
