<svg width="750" height="651" viewBox="0 0 750 651" fill="none" xmlns="http://www.w3.org/2000/svg">
<path d="M510.99 523.067L501.998 523.139L497.463 485.396L510.735 485.291L510.99 523.067Z" fill="#FFB8B8"/>
<path d="M495.556 520.393L512.898 520.252L512.979 532.145L484.718 532.374C484.708 530.812 484.98 529.263 485.518 527.816C486.057 526.369 486.853 525.051 487.859 523.938C488.865 522.826 490.063 521.94 491.384 521.332C492.704 520.723 494.122 520.404 495.556 520.393V520.393Z" fill="#2F2E41"/>
<path d="M459.893 315.918C460.672 315.105 461.604 314.488 462.625 314.111C463.646 313.733 464.731 313.604 465.803 313.732C466.875 313.861 467.908 314.243 468.829 314.854C469.75 315.464 470.537 316.287 471.135 317.264L487.672 313.718L492.102 324.139L468.684 328.789C467.11 329.774 465.258 330.096 463.481 329.693C461.704 329.291 460.123 328.192 459.04 326.606C457.956 325.019 457.445 323.055 457.602 321.085C457.759 319.115 458.575 317.277 459.893 315.918L459.893 315.918Z" fill="#FFB8B8"/>
<path d="M709.932 533.166L710.692 644.538L454.514 646.609C425.326 646.846 401.407 622.056 401.198 591.352C400.988 560.647 424.565 535.473 453.753 535.237L709.932 533.166Z" fill="#F2F2F2"/>
<path d="M716.979 643.63C716.986 644.766 716.579 645.858 715.847 646.667C715.115 647.477 714.118 647.936 713.075 647.945L449.974 650.073C435.685 650.188 421.938 644.116 411.759 633.193C401.58 622.269 395.801 607.388 395.695 591.824C395.589 576.26 401.163 561.287 411.192 550.2C421.221 539.113 434.883 532.819 449.173 532.704L712.274 530.576C713.317 530.568 714.32 531.011 715.063 531.808C715.806 532.605 716.228 533.692 716.236 534.828C716.243 535.964 715.837 537.057 715.105 537.866C714.372 538.675 713.375 539.135 712.332 539.143L449.231 541.271C437.028 541.369 425.36 546.744 416.795 556.213C408.23 565.682 403.47 578.468 403.56 591.76C403.651 605.052 408.586 617.761 417.279 627.09C425.973 636.419 437.712 641.604 449.916 641.506L713.017 639.378C714.06 639.37 715.063 639.813 715.806 640.611C716.548 641.408 716.97 642.494 716.979 643.63Z" fill="white"/>
<path d="M710.107 558.867L434.814 561.093C434.606 561.094 434.405 561.006 434.256 560.846C434.108 560.687 434.024 560.47 434.022 560.242C434.02 560.015 434.102 559.797 434.248 559.635C434.395 559.473 434.594 559.381 434.803 559.379L710.095 557.153C710.304 557.151 710.504 557.24 710.653 557.4C710.802 557.559 710.886 557.776 710.887 558.003C710.889 558.231 710.808 558.449 710.661 558.611C710.515 558.773 710.315 558.865 710.107 558.867Z" fill="#CCCCCC"/>
<path d="M710.247 579.428L434.955 581.654C434.746 581.656 434.546 581.567 434.397 581.408C434.249 581.248 434.164 581.031 434.163 580.804C434.161 580.577 434.242 580.358 434.389 580.196C434.535 580.034 434.735 579.942 434.943 579.941L710.236 577.714C710.444 577.713 710.645 577.801 710.794 577.961C710.942 578.12 711.027 578.338 711.028 578.565C711.03 578.792 710.948 579.011 710.802 579.172C710.655 579.334 710.456 579.426 710.247 579.428Z" fill="#CCCCCC"/>
<path d="M710.388 599.989L435.095 602.215C434.887 602.217 434.686 602.128 434.537 601.968C434.389 601.809 434.305 601.592 434.303 601.365C434.301 601.137 434.383 600.919 434.529 600.757C434.676 600.595 434.875 600.503 435.084 600.501L710.376 598.275C710.585 598.273 710.785 598.362 710.934 598.522C711.083 598.681 711.167 598.898 711.168 599.126C711.17 599.353 711.089 599.571 710.942 599.733C710.796 599.895 710.596 599.987 710.388 599.989Z" fill="#CCCCCC"/>
<path d="M710.528 620.55L435.236 622.776C435.027 622.778 434.826 622.689 434.678 622.529C434.529 622.37 434.445 622.153 434.443 621.926C434.442 621.698 434.523 621.48 434.67 621.318C434.816 621.156 435.015 621.064 435.224 621.062L710.516 618.836C710.725 618.835 710.926 618.923 711.074 619.083C711.223 619.242 711.307 619.459 711.309 619.687C711.31 619.914 711.229 620.132 711.083 620.294C710.936 620.456 710.737 620.548 710.528 620.55Z" fill="#CCCCCC"/>
<path d="M908.063 552.528L844.5 639.771L643.824 466.315C620.96 446.552 616.614 410.904 634.138 386.852C651.662 362.8 684.522 359.31 707.386 379.073L908.063 552.528Z" fill="#F2F2F2"/>
<path d="M849.918 643.36C849.27 644.249 848.323 644.822 847.287 644.952C846.251 645.081 845.21 644.758 844.393 644.052L638.294 465.91C627.1 456.234 619.894 442.112 618.26 426.65C616.626 411.187 620.698 395.651 629.581 383.459C638.464 371.267 651.429 363.418 665.625 361.639C679.821 359.859 694.085 364.295 705.279 373.97L911.378 552.113C911.783 552.462 912.121 552.895 912.372 553.387C912.623 553.879 912.783 554.42 912.842 554.979C912.901 555.538 912.859 556.104 912.717 556.645C912.575 557.186 912.337 557.692 912.016 558.132C911.695 558.573 911.297 558.941 910.845 559.214C910.394 559.487 909.897 559.661 909.384 559.725C908.87 559.789 908.351 559.743 907.854 559.588C907.357 559.433 906.893 559.174 906.489 558.824L700.39 380.681C695.656 376.587 690.229 373.548 684.418 371.739C678.606 369.929 672.524 369.385 666.52 370.136C660.515 370.888 654.705 372.92 649.422 376.118C644.138 379.316 639.485 383.616 635.728 388.773C631.971 393.93 629.183 399.842 627.524 406.173C625.866 412.503 625.368 419.128 626.061 425.668C626.753 432.208 628.621 438.535 631.559 444.289C634.497 450.042 638.447 455.108 643.183 459.199L849.282 637.341C850.099 638.048 850.625 639.079 850.744 640.207C850.863 641.336 850.566 642.469 849.918 643.36V643.36Z" fill="#CCCCCC"/>
<path d="M893.394 572.661L677.745 386.264C677.664 386.194 677.597 386.107 677.547 386.009C677.496 385.911 677.464 385.802 677.453 385.691C677.441 385.579 677.449 385.466 677.478 385.358C677.506 385.249 677.554 385.148 677.618 385.06C677.682 384.972 677.762 384.899 677.852 384.844C677.942 384.789 678.042 384.755 678.144 384.742C678.247 384.729 678.351 384.738 678.45 384.769C678.549 384.8 678.642 384.852 678.723 384.922L894.372 571.319C894.453 571.389 894.521 571.475 894.571 571.574C894.622 571.672 894.654 571.78 894.665 571.892C894.677 572.004 894.669 572.117 894.641 572.226C894.612 572.334 894.565 572.435 894.5 572.523C894.436 572.611 894.356 572.685 894.266 572.74C894.176 572.794 894.076 572.829 893.974 572.842C893.871 572.855 893.767 572.845 893.668 572.814C893.568 572.783 893.475 572.731 893.394 572.661L893.394 572.661Z" fill="#CCCCCC"/>
<path d="M881.66 588.768L666.01 402.37C665.847 402.229 665.742 402.023 665.718 401.797C665.695 401.572 665.754 401.345 665.884 401.167C666.013 400.99 666.202 400.875 666.41 400.849C666.617 400.823 666.825 400.887 666.988 401.028L882.637 587.425C882.718 587.495 882.786 587.582 882.836 587.68C882.887 587.779 882.919 587.887 882.931 587.999C882.942 588.111 882.934 588.224 882.906 588.332C882.877 588.44 882.83 588.542 882.765 588.63C882.701 588.718 882.622 588.791 882.531 588.846C882.441 588.901 882.341 588.936 882.239 588.948C882.136 588.961 882.032 588.952 881.933 588.921C881.833 588.89 881.74 588.838 881.66 588.768V588.768Z" fill="#CCCCCC"/>
<path d="M869.925 604.874L654.276 418.477C654.113 418.336 654.008 418.129 653.984 417.904C653.96 417.678 654.019 417.451 654.149 417.273C654.279 417.095 654.468 416.981 654.675 416.955C654.882 416.929 655.091 416.993 655.254 417.135L870.903 603.532C870.984 603.602 871.052 603.688 871.102 603.787C871.152 603.885 871.184 603.993 871.196 604.105C871.208 604.217 871.199 604.33 871.171 604.438C871.142 604.546 871.095 604.647 871.03 604.735C870.966 604.824 870.887 604.897 870.796 604.952C870.706 605.006 870.607 605.041 870.504 605.054C870.402 605.067 870.298 605.058 870.198 605.027C870.099 604.996 870.006 604.944 869.925 604.874L869.925 604.874Z" fill="#CCCCCC"/>
<path d="M858.191 620.98L642.541 434.583C642.46 434.513 642.393 434.426 642.343 434.328C642.293 434.23 642.261 434.122 642.249 434.01C642.237 433.898 642.246 433.785 642.274 433.677C642.302 433.568 642.35 433.467 642.414 433.379C642.478 433.291 642.558 433.218 642.648 433.163C642.738 433.108 642.838 433.074 642.94 433.061C643.043 433.048 643.147 433.057 643.246 433.088C643.345 433.119 643.438 433.171 643.519 433.241L859.168 619.638C859.25 619.708 859.317 619.794 859.367 619.893C859.418 619.991 859.45 620.099 859.462 620.211C859.474 620.323 859.465 620.436 859.437 620.545C859.408 620.653 859.361 620.754 859.296 620.842C859.232 620.931 859.153 621.004 859.062 621.059C858.972 621.113 858.872 621.148 858.77 621.161C858.667 621.174 858.563 621.164 858.464 621.133C858.364 621.102 858.271 621.05 858.191 620.98V620.98Z" fill="#CCCCCC"/>
<path d="M922.352 647.109L441.911 650.995C441.739 650.996 441.574 650.907 441.451 650.748C441.329 650.588 441.259 650.371 441.257 650.143C441.256 649.916 441.322 649.698 441.443 649.536C441.563 649.374 441.727 649.283 441.899 649.281L922.341 645.396C922.512 645.395 922.678 645.484 922.8 645.643C922.923 645.803 922.993 646.02 922.994 646.248C922.996 646.475 922.929 646.693 922.809 646.855C922.688 647.016 922.524 647.108 922.352 647.109Z" fill="#CCCCCC"/>
<path d="M602.855 522.324L593.863 522.396L589.328 484.653L602.6 484.548L602.855 522.324Z" fill="#FFB8B8"/>
<path d="M587.42 519.65L604.762 519.509L604.843 531.402L576.583 531.631C576.572 530.069 576.844 528.52 577.383 527.073C577.922 525.626 578.717 524.308 579.723 523.195C580.73 522.083 581.927 521.197 583.248 520.589C584.569 519.98 585.986 519.661 587.42 519.65V519.65Z" fill="#2F2E41"/>
<path d="M539.111 242.605L539.081 238.321C539.031 230.994 541.656 223.945 546.378 218.725C551.099 213.505 557.531 210.542 564.259 210.487L564.259 210.487C570.987 210.433 577.458 213.292 582.251 218.435C587.043 223.578 589.764 230.584 589.814 237.911L589.843 242.195C589.879 247.477 587.987 252.559 584.583 256.323C581.179 260.086 576.542 262.222 571.692 262.261L557.534 262.376C555.133 262.395 552.751 261.899 550.525 260.916C548.3 259.933 546.274 258.482 544.563 256.646C542.852 254.81 541.49 252.625 540.555 250.216C539.619 247.807 539.129 245.221 539.111 242.605V242.605Z" fill="#2F2E41"/>
<path d="M564.623 263.792C575.292 263.705 583.877 254.215 583.798 242.594C583.718 230.973 575.005 221.622 564.336 221.709C553.666 221.795 545.081 231.285 545.161 242.906C545.24 254.527 553.954 263.878 564.623 263.792Z" fill="#FFB8B8"/>
<path d="M549.652 277.165L549.871 277.521L522.848 297.226L477.134 313.534C476.528 313.752 476.01 314.191 475.668 314.778C475.326 315.364 475.181 316.062 475.259 316.752L476.322 326.122C476.369 326.537 476.496 326.936 476.693 327.295C476.89 327.653 477.154 327.963 477.467 328.204C477.781 328.444 478.137 328.611 478.513 328.694C478.889 328.776 479.277 328.772 479.651 328.681L522.709 318.264C524.793 317.762 526.76 316.8 528.488 315.436L558.835 291.547C559.935 290.676 560.81 289.51 561.374 288.163C561.938 286.815 562.172 285.331 562.054 283.855C561.932 282.378 561.459 280.96 560.681 279.742C559.904 278.524 558.848 277.547 557.619 276.908C556.39 276.269 555.029 275.99 553.671 276.097C552.312 276.204 551.003 276.695 549.871 277.521L549.652 277.165Z" fill="#CCCCCC"/>
<path d="M593.95 511.676C593.26 511.681 592.583 511.468 592.002 511.062C591.422 510.655 590.962 510.074 590.68 509.388L548.699 398.777C548.601 398.537 548.438 398.335 548.232 398.199C548.026 398.063 547.787 398 547.546 398.016C547.306 398.033 547.076 398.129 546.887 398.293C546.698 398.456 546.56 398.679 546.491 398.93L513.597 507.21C513.458 507.714 513.227 508.182 512.916 508.584C512.606 508.987 512.223 509.316 511.791 509.552C511.359 509.787 510.888 509.924 510.406 509.954C509.924 509.984 509.441 509.906 508.988 509.725L497.678 505.209C497.065 504.967 496.525 504.543 496.119 503.986C495.712 503.429 495.456 502.76 495.378 502.054C489.976 453.955 533.39 332.084 533.829 330.859L533.951 330.519L574.349 339.91L574.434 340.009C590.655 358.999 604.705 479.486 607.357 503.446C607.456 504.312 607.281 505.188 606.861 505.931C606.441 506.673 605.802 507.238 605.048 507.532L595.119 511.447C594.744 511.595 594.349 511.672 593.95 511.676Z" fill="#2F2E41"/>
<path d="M558.053 343.954C548.281 344.033 537.372 341.999 533.959 333.267L533.881 333.066L533.984 332.879C536.598 328.127 540.041 320.03 538.151 318.53C534.426 315.577 532.596 310.684 532.709 303.988C532.957 289.45 541.961 276.472 555.116 271.693L555.116 271.693C558.788 270.38 562.527 269.3 566.313 268.456C569.073 267.826 571.928 267.87 574.671 268.584C577.414 269.299 579.977 270.666 582.177 272.587C584.405 274.522 586.212 276.969 587.468 279.755C588.724 282.54 589.398 285.594 589.442 288.696C589.687 304.228 587.639 325.88 576.495 340.823C575.973 341.517 575.243 341.987 574.433 342.152C569.03 343.261 563.55 343.864 558.053 343.954Z" fill="#CCCCCC"/>
<path d="M554.414 343.401C554.932 341.319 556.183 339.544 557.895 338.461C559.608 337.378 561.644 337.075 563.561 337.618C563.952 337.734 564.334 337.884 564.703 338.068L577.192 325.502L585.981 331.848L568.117 349.326C567.316 350.927 566.046 352.19 564.51 352.915C562.974 353.639 561.259 353.783 559.639 353.324C558.695 353.051 557.81 352.577 557.036 351.929C556.261 351.281 555.612 350.472 555.126 349.55C554.64 348.627 554.327 347.608 554.205 346.553C554.083 345.498 554.154 344.427 554.414 343.401V343.401Z" fill="#FFB8B8"/>
<path d="M575.322 343.391C574.506 343.398 573.713 343.097 573.078 342.539L568.089 338.165C567.673 337.801 567.338 337.339 567.11 336.813C566.881 336.288 566.765 335.713 566.769 335.131C566.773 334.55 566.898 333.977 567.134 333.456C567.371 332.934 567.712 332.478 568.134 332.121L588.813 314.579C589.058 314.37 589.217 314.064 589.257 313.727C589.296 313.391 589.212 313.052 589.023 312.782L576.06 294.401C574.554 292.273 573.788 289.633 573.898 286.949C574.007 284.264 574.985 281.708 576.658 279.734V279.734C578.42 277.63 580.844 276.324 583.449 276.076C586.054 275.828 588.649 276.656 590.719 278.394L590.801 278.487L604.348 299.284C605.806 300.511 606.984 302.087 607.79 303.891C608.596 305.695 609.009 307.678 608.995 309.684C608.981 311.69 608.542 313.666 607.711 315.456C606.881 317.247 605.681 318.804 604.207 320.007L577.424 342.618C576.817 343.114 576.08 343.384 575.322 343.391Z" fill="#CCCCCC"/>
<path d="M547.327 236.969L547.256 226.529L564.312 218.252L580.684 226.259L580.755 236.699C580.758 237.153 580.596 237.59 580.303 237.914C580.01 238.238 579.611 238.422 579.194 238.425L548.912 238.67C548.495 238.673 548.093 238.496 547.796 238.177C547.499 237.858 547.33 237.423 547.327 236.969Z" fill="#2F2E41"/>
<path d="M563.483 211.879C560.907 203.128 566.122 193.032 573.91 189.497C581.698 185.962 591.061 188.314 597.691 193.996C604.322 199.679 608.47 208.238 610.698 217.102C612.925 225.966 613.4 235.223 613.862 244.399C623.473 246.242 630.087 258.588 626.83 268.608C623.574 278.627 611.301 283.691 602.767 278.537C594.233 273.383 591.675 259.363 597.752 251.047C600.628 247.112 602.216 242.244 602.265 237.215C602.314 232.186 600.822 227.283 598.023 223.282C595.225 219.282 591.281 216.412 586.817 215.128C582.352 213.844 577.622 214.22 573.376 216.194C568.66 218.387 562.687 212.837 563.483 211.879Z" fill="#2F2E41"/>
<path d="M433.658 462.102C433.257 473.893 431.193 485.568 427.527 496.784C427.443 497.044 427.355 497.301 427.268 497.561L405.315 497.396C405.34 497.162 405.366 496.901 405.391 496.617C406.975 479.842 416.146 377.736 406.18 360.188C407.052 361.612 435.742 408.775 433.658 462.102Z" fill="#E6E6E6"/>
<path d="M431.762 496.816C431.577 497.075 431.384 497.335 431.187 497.59L414.719 497.466C414.845 497.245 414.991 496.986 415.161 496.691C417.917 491.813 426.074 477.228 433.658 462.102C441.808 445.847 449.299 428.967 448.722 422.834C448.903 424.218 454.16 466.4 431.762 496.816Z" fill="#E6E6E6"/>
<path d="M492.751 496.949L20.5779 493.397L20.5659 495.069L492.739 498.621L492.751 496.949Z" fill="#E6E6E6"/>
<path d="M265.104 559.176L268.351 533.961L355.137 512.435L345.385 482.534C352.469 462.722 364.727 453.076 386.924 462.961L425.057 486.986C428.763 489.321 431.772 492.606 433.77 496.498C435.767 500.39 436.68 504.745 436.412 509.109V509.109C436.147 513.49 434.7 517.717 432.226 521.345C429.751 524.973 426.34 527.867 422.353 529.721C379.329 549.674 324.623 557.022 265.104 559.176Z" fill="#FFB8B8"/>
<path d="M270.415 566.864L243.611 562.838L218.478 567.759C216.938 568.06 215.351 568.025 213.826 567.654C212.301 567.284 210.875 566.588 209.646 565.614C208.417 564.64 207.414 563.411 206.708 562.013C206.001 560.615 205.607 559.081 205.553 557.516V557.516C205.492 555.766 205.859 554.028 206.62 552.451C207.382 550.874 208.516 549.505 209.925 548.462L249.463 519.2C252.854 516.69 257.031 515.469 261.244 515.755C265.457 516.041 269.431 517.816 272.452 520.761L282.177 530.242C275.138 534.526 269.881 540.994 266.702 550.01C273.411 553.754 274.648 559.372 270.415 566.864Z" fill="#2F2E41"/>
<path d="M297.939 302.093C311.643 302.196 322.832 291.197 322.93 277.525C323.028 263.854 311.998 252.687 298.293 252.584C284.589 252.481 273.399 263.48 273.302 277.152C273.204 290.823 284.234 301.99 297.939 302.093Z" fill="#FFB8B8"/>
<path d="M336.535 326.446L280.789 349.354C285.468 326.762 287.867 306.168 281.188 293.526L316.866 289.587C315.027 299.251 323.954 312.277 336.535 326.446Z" fill="#FFB8B8"/>
<path d="M240.577 558.227L219.89 556.542C207.587 503.697 201.452 453.789 204.611 408.307C205.059 401.668 208.068 395.46 213.006 390.987C217.944 386.514 224.427 384.124 231.095 384.318C237.503 384.512 243.609 387.081 248.221 391.524L274.806 417.136C286.662 428.47 295.83 442.303 301.639 457.623C309.078 477.487 306.277 488.57 288.193 486.549C276.894 485.206 266.532 479.611 259.225 470.907L239.832 448.089L240.577 558.227Z" fill="#FFB8B8"/>
<path d="M224.1 620.788C221.388 620.591 218.758 619.774 216.413 618.4C214.069 617.026 212.072 615.132 210.579 612.865C209.086 610.598 208.136 608.018 207.803 605.327C207.47 602.635 207.762 599.903 208.658 597.342L212.782 585.551L216.062 555.748C220.855 546.167 227.534 547.656 235.233 555.127C240.165 554.681 241.258 549.773 240.687 542.931L256.079 563.918C257.396 565.715 258.207 567.83 258.426 570.044C258.645 572.259 258.265 574.491 257.325 576.509L241.439 610.618C239.925 613.868 237.456 616.582 234.359 618.398C231.262 620.215 227.684 621.049 224.1 620.788V620.788Z" fill="#2F2E41"/>
<path d="M420.888 484.249C392.409 500.096 383.515 500.495 355.143 511.67L330.71 497.72C301.823 508.131 281.717 493.41 259.981 471.567C274.477 447.871 268.363 416.892 277.235 417.395L383.174 451.461L387.691 462.967L420.888 484.249Z" fill="#2F2E41"/>
<path d="M386.952 459.138C349.346 475.044 309.103 457.601 274.919 419.672L252.764 327.589C252.501 326.575 252.45 325.517 252.613 324.482C252.775 323.448 253.149 322.457 253.71 321.572C254.272 320.687 255.009 319.926 255.877 319.336C256.744 318.746 257.724 318.34 258.755 318.142L285.265 313.059L298.15 333.806L324.379 311.059L351.995 320.295C355.667 321.523 358.936 323.723 361.453 326.66C363.969 329.597 365.639 333.16 366.283 336.97L386.952 459.138Z" fill="#888473"/>
<path opacity="0.2" d="M326.846 536.608C324.828 535.824 323.028 534.568 321.597 532.947C320.166 531.326 319.145 529.386 318.62 527.29C318.096 525.194 318.083 523.003 318.583 520.902C319.082 518.8 320.08 516.849 321.492 515.212L339.164 494.724L351.381 501.699L344.881 527.34C344.41 529.195 343.55 530.929 342.357 532.428C341.163 533.926 339.664 535.154 337.959 536.03C336.254 536.907 334.381 537.411 332.465 537.511C330.549 537.611 328.634 537.303 326.846 536.608Z" fill="black"/>
<path d="M326.868 533.55C324.85 532.765 323.05 531.51 321.619 529.889C320.187 528.267 319.167 526.327 318.642 524.231C318.118 522.135 318.105 519.945 318.605 517.843C319.104 515.742 320.102 513.791 321.514 512.154L339.186 491.666L351.403 498.641L344.903 524.281C344.432 526.137 343.572 527.871 342.379 529.369C341.185 530.868 339.686 532.096 337.981 532.972C336.276 533.848 334.403 534.353 332.487 534.453C330.571 534.552 328.656 534.244 326.868 533.55V533.55Z" fill="#FFB8B8"/>
<path d="M354.425 504.782L336.114 492.407L363.455 421.485L354.206 321.226L363.257 326.962C368.114 330.041 372.294 334.072 375.543 338.81C378.793 343.549 381.044 348.895 382.16 354.527L396.386 426.322C389.7 459.315 378.742 488.306 354.425 504.782Z" fill="#888473"/>
<path opacity="0.2" d="M344.123 391.13L352.994 437.085L345.235 463.865L344.123 391.13Z" fill="black"/>
<path d="M273.863 275.033C273.863 275.033 259.898 228.24 303.531 238.36C310.299 239.93 316.127 243.905 320.749 249.081C321.163 249.534 321.671 249.891 322.239 250.127C322.806 250.363 323.417 250.473 324.031 250.448C331.013 250.5 335.147 275.42 321.106 286.259C321.106 286.259 324.06 271.554 318.918 266.497C317.992 265.64 317.22 264.633 316.634 263.519C313.312 256.71 301.998 254.399 294.179 254.918C290.188 255.182 289.789 262.118 285.38 261.116C275.347 258.835 272.057 270.423 273.863 275.033Z" fill="#2F2E41"/>
<path d="M317.355 344.656L317.05 346.767L315.171 359.797L312.094 381.134L311.323 386.476C311.265 386.884 311.06 387.257 310.747 387.525C310.433 387.794 310.033 387.94 309.62 387.937L290.118 387.79C289.706 387.787 289.308 387.636 288.999 387.363C288.69 387.091 288.49 386.716 288.436 386.308L287.73 380.951L284.909 359.569L283.185 346.503L282.908 344.401C282.876 344.159 282.896 343.913 282.967 343.681C283.039 343.448 283.159 343.233 283.321 343.05C283.482 342.868 283.681 342.722 283.904 342.622C284.127 342.523 284.369 342.473 284.613 342.475L315.676 342.708C315.92 342.71 316.16 342.764 316.382 342.866C316.603 342.969 316.8 343.117 316.959 343.302C317.118 343.486 317.235 343.702 317.303 343.936C317.372 344.169 317.389 344.415 317.355 344.656V344.656Z" fill="#E6E6E6"/>
<path d="M286.711 336.832L313.76 337.035C313.984 337.037 314.206 337.083 314.412 337.17C314.619 337.257 314.806 337.384 314.964 337.544C315.121 337.703 315.246 337.892 315.33 338.099C315.415 338.307 315.457 338.528 315.456 338.752L315.439 341.003C315.436 341.455 315.253 341.887 314.931 342.204C314.608 342.522 314.172 342.698 313.719 342.694L286.671 342.491C286.218 342.488 285.785 342.305 285.467 341.983C285.149 341.661 284.972 341.226 284.975 340.774L284.991 338.523C284.993 338.299 285.039 338.078 285.126 337.872C285.213 337.666 285.34 337.479 285.5 337.322C285.66 337.165 285.849 337.041 286.057 336.957C286.265 336.873 286.487 336.83 286.711 336.832V336.832Z" fill="#3F3D56"/>
<path d="M319.792 345.569C306.742 346.891 293.587 346.792 280.558 345.274C280.333 345.272 280.112 345.227 279.905 345.139C279.698 345.052 279.511 344.925 279.353 344.766C279.196 344.606 279.071 344.418 278.987 344.21C278.903 344.003 278.86 343.781 278.862 343.557L278.878 341.306C278.88 341.082 278.925 340.861 279.013 340.655C279.1 340.449 279.227 340.262 279.387 340.105C279.547 339.948 279.736 339.824 279.944 339.74C280.151 339.656 280.374 339.613 280.598 339.615C293.616 341.311 306.792 341.41 319.832 339.91C320.285 339.914 320.718 340.096 321.036 340.418C321.354 340.74 321.531 341.175 321.528 341.627L321.512 343.878C321.509 344.33 321.326 344.762 321.003 345.079C320.68 345.396 320.245 345.573 319.792 345.569V345.569Z" fill="#3F3D56"/>
<path d="M299.196 371.565C303.268 371.596 306.592 368.328 306.621 364.266C306.65 360.204 303.373 356.887 299.301 356.856C295.23 356.826 291.906 360.093 291.877 364.155C291.847 368.217 295.125 371.535 299.196 371.565Z" fill="white"/>
<path d="M318.091 379.826C318.299 381.976 317.988 384.144 317.183 386.149C316.377 388.154 315.102 389.936 313.463 391.347C311.824 392.758 309.87 393.756 307.764 394.258C305.658 394.76 303.463 394.75 301.361 394.23L275.056 387.721L275.786 373.7L301.662 367.94C303.534 367.523 305.474 367.508 307.353 367.896C309.232 368.284 311.007 369.066 312.561 370.189C314.114 371.313 315.41 372.754 316.364 374.415C317.317 376.076 317.906 377.921 318.091 379.826V379.826Z" fill="#FFB8B8"/>
<path d="M282.413 390.283L211.287 391.522C208.72 391.567 206.173 391.052 203.825 390.015C201.476 388.977 199.383 387.442 197.69 385.515C195.997 383.588 194.746 381.316 194.023 378.858C193.3 376.399 193.123 373.813 193.504 371.28C194.102 367.311 196.039 363.665 198.997 360.945L232.703 329.95C238.955 324.202 246.72 320.351 255.089 318.851L266.84 316.744L273.367 368.801L233.536 363.912L280.261 369.617L282.413 390.283Z" fill="#888473"/>
<path d="M187.635 542.179L6.08744 540.814C4.47296 540.802 2.92921 540.15 1.79575 539.003C0.662296 537.855 0.0319756 536.306 0.0435056 534.695V534.695C65.9091 527.56 130.483 528.046 193.766 536.152C193.755 537.763 193.102 539.303 191.952 540.433C190.803 541.563 189.25 542.191 187.635 542.179Z" fill="#2F2E41"/>
<path d="M193.764 536.509L0.0434876 534.694L22.7651 497.177L22.8738 496.999L23.4684 413.942C23.4755 412.934 23.6816 411.937 24.075 411.008C24.4683 410.08 25.0412 409.238 25.7609 408.53C26.4806 407.823 27.333 407.264 28.2694 406.885C29.2058 406.506 30.208 406.315 31.2185 406.323L163.358 407.317C164.369 407.325 165.368 407.531 166.299 407.923C167.23 408.316 168.074 408.888 168.783 409.606C169.493 410.324 170.054 411.175 170.434 412.109C170.814 413.044 171.006 414.043 170.998 415.052L170.4 498.68L193.764 536.509Z" fill="#3F3D56"/>
<path d="M31.0048 411.68C30.3403 411.676 29.7013 411.935 29.228 412.4C28.7547 412.865 28.4859 413.499 28.4804 414.162L27.9382 489.892C27.9343 490.555 28.1941 491.193 28.6606 491.665C29.1272 492.138 29.7623 492.406 30.4269 492.412L163.992 493.417C164.656 493.421 165.295 493.162 165.768 492.697C166.242 492.231 166.51 491.598 166.516 490.935L167.058 415.204C167.062 414.541 166.802 413.904 166.336 413.432C165.869 412.959 165.234 412.691 164.57 412.685L31.0048 411.68Z" fill="white"/>
<path d="M31.2327 502.421C31.0274 502.42 30.8259 502.477 30.6522 502.586C30.4785 502.695 30.3397 502.852 30.2522 503.037L23.2268 517.988C23.1503 518.151 23.116 518.33 23.1272 518.51C23.1384 518.689 23.1946 518.863 23.2907 519.015C23.3868 519.167 23.5197 519.292 23.6772 519.38C23.8346 519.467 24.0115 519.514 24.1917 519.515L169.675 520.61C169.859 520.611 170.039 520.566 170.2 520.478C170.36 520.39 170.495 520.263 170.593 520.108C170.69 519.953 170.746 519.777 170.756 519.594C170.765 519.412 170.728 519.23 170.647 519.066L163.235 504.006C163.147 503.827 163.011 503.676 162.842 503.57C162.673 503.464 162.478 503.407 162.278 503.407L31.2327 502.421Z" fill="#2F2E41"/>
<path d="M82.1569 522.809C81.9208 522.807 81.6907 522.884 81.5023 523.025C81.3138 523.167 81.1774 523.367 81.1141 523.594L79.3327 530.011C79.2887 530.169 79.2818 530.336 79.3126 530.498C79.3435 530.659 79.4112 530.812 79.5106 530.943C79.6099 531.074 79.7383 531.181 79.8856 531.255C80.033 531.329 80.1953 531.368 80.3602 531.369L113.362 531.617C113.534 531.619 113.703 531.579 113.856 531.502C114.008 531.425 114.14 531.312 114.241 531.174C114.341 531.035 114.407 530.875 114.432 530.706C114.458 530.537 114.442 530.365 114.387 530.203L112.202 523.756C112.131 523.545 111.995 523.361 111.814 523.231C111.633 523.1 111.416 523.029 111.192 523.027L82.1569 522.809Z" fill="#2F2E41"/>
<path d="M170.413 496.859L170.402 498.288L22.7652 497.178L22.877 496.999L22.886 495.749L170.413 496.859Z" fill="#2F2E41"/>
<path d="M65.1748 442.831C77.5545 442.796 89.9334 442.668 102.313 442.593C106.44 442.568 110.567 442.55 114.694 442.539C118.25 442.529 118.299 437.013 114.733 437.023C102.354 437.059 89.9749 437.186 77.5955 437.261C73.4685 437.286 69.3414 437.304 65.2143 437.315C61.6583 437.325 61.6097 442.841 65.1748 442.831Z" fill="#3F3D56"/>
<path d="M65.0828 455.702L115.117 455.561L129.346 455.521C132.902 455.511 132.951 449.995 129.386 450.005L79.3521 450.146L65.1223 450.186C61.5662 450.196 61.5177 455.712 65.0828 455.702Z" fill="#3F3D56"/>
<path d="M64.9907 468.571L115.025 468.431L129.254 468.391C132.81 468.381 132.859 462.865 129.294 462.875L79.26 463.016L65.0302 463.056C61.4742 463.066 61.4256 468.581 64.9907 468.571Z" fill="#3F3D56"/>
<path d="M122.532 140.055C153.242 140.188 178.208 120.793 178.297 96.7344C178.385 72.6757 153.561 53.064 122.852 52.9305C92.1418 52.7969 67.175 72.1922 67.0867 96.251C66.9984 120.31 91.822 139.921 122.532 140.055Z" fill="#FF6584"/>
<path d="M236.117 272.413C281.087 266.26 304.351 202.97 288.08 131.052C271.809 59.1328 222.163 5.81933 177.194 11.9726C132.224 18.1258 108.959 81.4157 125.23 153.334C141.502 225.253 191.147 278.567 236.117 272.413Z" fill="#E6E6E6"/>
<path d="M193.202 117.391C200.419 132.918 206.834 148.652 212.448 164.594C218.05 180.521 222.834 196.605 226.798 212.846C230.762 229.081 233.892 245.422 236.188 261.867C238.472 278.284 239.919 294.753 240.526 311.274C241.13 327.778 241.553 312.473 240.461 328.976C241.844 301.455 244.521 309.011 240.461 328.976C240.299 331.038 242.908 306.881 240.461 328.976C241.764 312.422 245.217 333.733 244.815 317.131C244.411 300.624 243.163 284.146 241.072 267.696C238.976 251.198 236.049 234.78 232.291 218.441C228.531 202.11 223.939 185.913 218.516 169.849C213.096 153.803 206.854 137.945 199.791 122.274C198.929 120.364 198.056 118.456 197.17 116.552C196.271 114.619 192.294 115.436 193.202 117.391Z" fill="#3F3D56"/>
<path d="M221.304 178.469L239.633 146.868L244.799 137.961C245.059 137.59 245.129 137.155 244.993 136.745C244.858 136.335 244.527 135.981 244.07 135.754C243.599 135.54 243.04 135.479 242.513 135.585C241.987 135.691 241.535 135.955 241.255 136.32L222.927 167.921L217.761 176.828C217.5 177.199 217.431 177.633 217.566 178.044C217.702 178.454 218.032 178.808 218.49 179.034C218.961 179.249 219.52 179.31 220.047 179.204C220.573 179.098 221.025 178.834 221.304 178.469L221.304 178.469Z" fill="#3F3D56"/>
<path d="M225.249 200.134L183.766 187.755L172.074 184.266C171.549 184.154 170.989 184.208 170.515 184.416C170.041 184.625 169.692 184.971 169.541 185.38C169.407 185.791 169.48 186.227 169.747 186.597C170.013 186.968 170.451 187.244 170.97 187.367L212.453 199.746L224.145 203.235C224.67 203.347 225.23 203.293 225.703 203.085C226.177 202.876 226.527 202.53 226.677 202.121C226.812 201.71 226.738 201.274 226.472 200.904C226.206 200.533 225.768 200.257 225.249 200.134L225.249 200.134Z" fill="#3F3D56"/>
<path d="M440.31 219.99L451.66 210.11C442.843 209.051 439.219 214.285 437.737 218.428C430.848 215.314 423.348 219.394 423.348 219.394L446.059 228.367C444.913 225.037 442.919 222.131 440.31 219.99V219.99Z" fill="#3F3D56"/>
<path d="M357.1 167.249L368.451 157.369C359.633 156.31 356.01 161.544 354.527 165.686C347.638 162.573 340.139 166.653 340.139 166.653L362.849 175.626C361.704 172.295 359.709 169.389 357.1 167.249V167.249Z" fill="#3F3D56"/>
<path d="M481.457 127.443L492.808 117.563C483.99 116.505 480.367 121.738 478.884 125.881C471.995 122.768 464.496 126.848 464.496 126.848L487.206 135.82C486.061 132.49 484.066 129.584 481.457 127.443V127.443Z" fill="#3F3D56"/>
</svg>
