<svg width="720" height="613" viewBox="0 0 720 613" fill="none" xmlns="http://www.w3.org/2000/svg">
<path d="M694.906 501.399L695.613 606.136L457.439 608.084C430.303 608.306 408.065 584.994 407.87 556.118C407.675 527.243 429.596 503.57 456.732 503.348L694.906 501.399Z" fill="#F2F2F2"/>
<path d="M701.458 605.282C701.465 606.35 701.087 607.378 700.406 608.139C699.725 608.9 698.799 609.332 697.829 609.34L453.219 611.341C439.933 611.45 427.153 605.74 417.689 595.467C408.225 585.194 402.853 571.2 402.754 556.563C402.655 541.926 407.838 527.846 417.162 517.419C426.487 506.993 439.188 501.074 452.474 500.965L697.084 498.964C698.054 498.956 698.986 499.373 699.677 500.123C700.368 500.873 700.76 501.894 700.767 502.963C700.775 504.031 700.396 505.059 699.716 505.82C699.035 506.581 698.108 507.013 697.138 507.021L452.528 509.022C441.182 509.115 430.335 514.169 422.372 523.074C414.409 531.978 409.982 544.003 410.067 556.503C410.151 569.003 414.739 580.954 422.822 589.728C430.904 598.501 441.819 603.377 453.164 603.285L697.775 601.284C698.744 601.276 699.677 601.693 700.368 602.443C701.058 603.193 701.451 604.214 701.458 605.282Z" fill="white"/>
<path d="M695.069 525.569L439.124 527.663C438.931 527.665 438.744 527.581 438.606 527.431C438.468 527.281 438.389 527.077 438.388 526.863C438.386 526.65 438.462 526.444 438.598 526.292C438.734 526.14 438.92 526.053 439.114 526.052L695.059 523.958C695.252 523.956 695.439 524.04 695.577 524.19C695.715 524.34 695.794 524.544 695.795 524.758C695.797 524.971 695.721 525.177 695.585 525.329C695.449 525.481 695.263 525.568 695.069 525.569Z" fill="#CCCCCC"/>
<path d="M695.2 544.905L439.255 546.999C439.061 547 438.874 546.917 438.736 546.767C438.598 546.617 438.52 546.413 438.518 546.199C438.517 545.986 438.592 545.78 438.728 545.628C438.865 545.476 439.05 545.389 439.244 545.388L695.189 543.294C695.383 543.292 695.569 543.376 695.708 543.526C695.846 543.676 695.924 543.88 695.926 544.094C695.927 544.307 695.851 544.513 695.715 544.665C695.579 544.817 695.394 544.904 695.2 544.905Z" fill="#CCCCCC"/>
<path d="M695.331 564.241L439.386 566.335C439.192 566.336 439.005 566.253 438.867 566.103C438.729 565.953 438.65 565.749 438.649 565.535C438.648 565.321 438.723 565.116 438.859 564.964C438.995 564.812 439.181 564.725 439.375 564.724L695.32 562.63C695.514 562.628 695.7 562.712 695.838 562.862C695.977 563.012 696.055 563.216 696.056 563.43C696.058 563.643 695.982 563.849 695.846 564.001C695.71 564.153 695.525 564.24 695.331 564.241Z" fill="#CCCCCC"/>
<path d="M695.461 583.577L439.516 585.671C439.322 585.672 439.136 585.589 438.997 585.439C438.859 585.289 438.781 585.085 438.779 584.871C438.778 584.657 438.854 584.452 438.99 584.299C439.126 584.147 439.311 584.061 439.505 584.059L695.45 581.966C695.644 581.964 695.831 582.047 695.969 582.197C696.107 582.347 696.185 582.552 696.187 582.765C696.188 582.979 696.113 583.184 695.976 583.337C695.84 583.489 695.655 583.575 695.461 583.577Z" fill="#CCCCCC"/>
<path d="M879.113 519.609L820.017 601.653L633.445 438.532C612.187 419.947 608.147 386.422 624.44 363.803C640.732 341.184 671.283 337.902 692.54 356.488L879.113 519.609Z" fill="#F2F2F2"/>
<path d="M825.055 605.028C824.452 605.865 823.572 606.403 822.609 606.525C821.645 606.647 820.677 606.343 819.918 605.679L628.303 438.151C617.896 429.052 611.196 415.771 609.677 401.23C608.158 386.689 611.944 372.078 620.202 360.613C628.461 349.147 640.515 341.766 653.714 340.092C666.912 338.419 680.174 342.59 690.581 351.689L882.195 519.218C882.572 519.546 882.886 519.954 883.119 520.416C883.353 520.878 883.501 521.387 883.556 521.913C883.611 522.439 883.572 522.971 883.44 523.48C883.308 523.989 883.087 524.464 882.788 524.879C882.489 525.293 882.12 525.639 881.7 525.896C881.28 526.153 880.818 526.316 880.341 526.377C879.864 526.437 879.38 526.393 878.919 526.248C878.457 526.102 878.025 525.858 877.649 525.529L686.035 358C681.634 354.15 676.588 351.292 671.185 349.591C665.782 347.889 660.128 347.377 654.545 348.084C648.962 348.79 643.561 350.702 638.649 353.709C633.737 356.716 629.411 360.76 625.918 365.61C622.424 370.459 619.833 376.019 618.291 381.973C616.748 387.926 616.286 394.156 616.93 400.306C617.573 406.457 619.311 412.407 622.042 417.818C624.773 423.228 628.446 427.993 632.849 431.84L824.463 599.368C825.223 600.033 825.712 601.002 825.822 602.063C825.933 603.125 825.657 604.191 825.055 605.028V605.028Z" fill="#CCCCCC"/>
<path d="M865.476 538.542L664.982 363.25C664.907 363.184 664.844 363.103 664.797 363.01C664.751 362.918 664.721 362.816 664.71 362.711C664.699 362.606 664.707 362.5 664.733 362.398C664.76 362.296 664.804 362.201 664.864 362.118C664.924 362.035 664.997 361.966 665.081 361.915C665.165 361.863 665.258 361.831 665.353 361.819C665.448 361.807 665.545 361.815 665.637 361.844C665.73 361.873 665.816 361.922 665.891 361.988L866.385 537.28C866.46 537.345 866.523 537.427 866.57 537.519C866.617 537.612 866.646 537.713 866.657 537.819C866.668 537.924 866.661 538.03 866.634 538.132C866.608 538.234 866.563 538.329 866.504 538.412C866.444 538.495 866.37 538.564 866.286 538.616C866.202 538.667 866.11 538.7 866.014 538.712C865.919 538.724 865.822 538.715 865.73 538.686C865.637 538.657 865.551 538.608 865.476 538.542L865.476 538.542Z" fill="#CCCCCC"/>
<path d="M854.565 553.689L654.072 378.397C653.92 378.264 653.823 378.07 653.801 377.858C653.779 377.646 653.834 377.433 653.954 377.266C654.075 377.099 654.251 376.991 654.443 376.966C654.636 376.942 654.829 377.002 654.981 377.135L855.475 552.427C855.55 552.492 855.613 552.574 855.66 552.666C855.706 552.759 855.736 552.86 855.747 552.966C855.758 553.071 855.75 553.177 855.724 553.279C855.698 553.381 855.653 553.476 855.594 553.559C855.534 553.642 855.46 553.711 855.376 553.763C855.292 553.814 855.199 553.847 855.104 553.859C855.008 553.871 854.912 553.862 854.819 553.833C854.727 553.804 854.641 553.755 854.565 553.689V553.689Z" fill="#CCCCCC"/>
<path d="M843.656 568.835L643.162 393.544C643.01 393.411 642.913 393.217 642.89 393.005C642.868 392.793 642.923 392.579 643.044 392.412C643.165 392.245 643.341 392.137 643.533 392.112C643.726 392.088 643.92 392.149 644.071 392.282L844.565 567.573C844.64 567.639 844.703 567.72 844.75 567.813C844.796 567.905 844.826 568.007 844.837 568.112C844.848 568.217 844.84 568.324 844.814 568.426C844.787 568.527 844.743 568.622 844.683 568.705C844.623 568.788 844.55 568.857 844.466 568.909C844.382 568.96 844.289 568.993 844.194 569.005C844.099 569.017 844.002 569.008 843.91 568.979C843.817 568.95 843.731 568.901 843.656 568.835L843.656 568.835Z" fill="#CCCCCC"/>
<path d="M832.746 583.982L632.252 408.69C632.177 408.625 632.114 408.543 632.067 408.451C632.021 408.358 631.991 408.256 631.98 408.151C631.969 408.046 631.977 407.94 632.004 407.838C632.03 407.736 632.074 407.641 632.134 407.558C632.194 407.475 632.268 407.406 632.351 407.355C632.435 407.304 632.528 407.271 632.623 407.259C632.718 407.247 632.815 407.255 632.907 407.284C633 407.314 633.086 407.362 633.161 407.428L833.655 582.72C833.73 582.785 833.793 582.867 833.84 582.959C833.887 583.052 833.916 583.154 833.927 583.259C833.938 583.364 833.931 583.471 833.904 583.572C833.878 583.674 833.834 583.769 833.774 583.852C833.714 583.935 833.64 584.004 833.556 584.056C833.472 584.107 833.38 584.14 833.284 584.152C833.189 584.164 833.092 584.155 833 584.126C832.907 584.097 832.821 584.048 832.746 583.982V583.982Z" fill="#CCCCCC"/>
<path d="M892.269 608.556L349.666 612.994C349.472 612.996 349.285 612.912 349.147 612.762C349.009 612.612 348.93 612.408 348.929 612.194C348.928 611.981 349.003 611.775 349.139 611.623C349.275 611.471 349.461 611.384 349.655 611.383L892.258 606.944C892.452 606.943 892.639 607.026 892.777 607.176C892.915 607.326 892.993 607.53 892.995 607.744C892.996 607.958 892.921 608.163 892.784 608.315C892.648 608.467 892.463 608.554 892.269 608.556Z" fill="#CCCCCC"/>
<path d="M595.355 491.204L586.995 491.272L582.779 455.778L595.118 455.678L595.355 491.204Z" fill="#FFB8B8"/>
<path d="M581.005 488.689L597.128 488.557L597.203 499.741L570.929 499.956C570.919 498.487 571.172 497.031 571.673 495.67C572.174 494.309 572.913 493.07 573.849 492.023C574.785 490.977 575.898 490.144 577.126 489.572C578.354 489 579.672 488.7 581.005 488.689V488.689Z" fill="#2F2E41"/>
<path d="M509.946 491.903L501.586 491.97L497.37 456.476L509.709 456.377L509.946 491.903Z" fill="#FFB8B8"/>
<path d="M495.597 489.387L511.72 489.256L511.795 500.44L485.521 500.655C485.511 499.186 485.764 497.729 486.265 496.368C486.766 495.007 487.505 493.768 488.441 492.722C489.376 491.676 490.49 490.843 491.718 490.271C492.946 489.698 494.264 489.398 495.597 489.387V489.387Z" fill="#2F2E41"/>
<path d="M536.091 228.151L536.063 224.122C536.017 217.231 538.457 210.602 542.847 205.693C547.237 200.784 553.217 197.998 559.471 197.947L559.471 197.947C565.726 197.896 571.743 200.584 576.199 205.42C580.655 210.257 583.184 216.845 583.23 223.737L583.258 227.765C583.291 232.733 581.532 237.512 578.367 241.051C575.202 244.59 570.891 246.599 566.382 246.636L553.219 246.743C550.986 246.762 548.772 246.295 546.703 245.371C544.634 244.446 542.75 243.082 541.16 241.355C539.569 239.629 538.303 237.574 537.433 235.308C536.563 233.043 536.107 230.611 536.091 228.151V228.151Z" fill="#2F2E41"/>
<path d="M559.81 248.075C569.729 247.994 577.711 239.069 577.637 228.14C577.563 217.212 569.462 208.418 559.543 208.499C549.623 208.58 541.642 217.505 541.715 228.434C541.789 239.363 549.89 248.156 559.81 248.075Z" fill="#FFB8B8"/>
<path d="M462.44 297.095C463.164 296.331 464.031 295.751 464.98 295.396C465.93 295.041 466.938 294.919 467.935 295.04C468.931 295.161 469.891 295.521 470.748 296.095C471.604 296.668 472.336 297.442 472.892 298.361L488.267 295.027L492.385 304.826L470.613 309.2C469.149 310.126 467.428 310.428 465.776 310.05C464.123 309.672 462.654 308.639 461.647 307.147C460.639 305.655 460.164 303.807 460.31 301.955C460.456 300.102 461.214 298.373 462.44 297.095L462.44 297.095Z" fill="#FFB8B8"/>
<path d="M545.891 260.652L546.095 260.986L520.971 279.517L478.47 294.854C477.906 295.058 477.425 295.471 477.107 296.023C476.789 296.575 476.654 297.231 476.726 297.88L477.715 306.691C477.759 307.081 477.876 307.457 478.06 307.794C478.243 308.131 478.488 308.422 478.779 308.649C479.071 308.876 479.402 309.033 479.752 309.11C480.102 309.187 480.462 309.183 480.81 309.098L520.842 299.301C522.779 298.83 524.608 297.925 526.215 296.643L554.429 274.177C555.452 273.358 556.265 272.261 556.789 270.994C557.314 269.726 557.531 268.331 557.421 266.943C557.308 265.554 556.868 264.22 556.145 263.075C555.422 261.929 554.441 261.011 553.298 260.41C552.156 259.809 550.89 259.546 549.627 259.647C548.364 259.748 547.147 260.21 546.095 260.986L545.891 260.652Z" fill="#CCCCCC"/>
<path d="M587.076 481.19C586.434 481.195 585.805 480.995 585.265 480.613C584.725 480.231 584.298 479.684 584.036 479.038L545.006 375.017C544.915 374.792 544.763 374.602 544.571 374.475C544.38 374.347 544.157 374.287 543.933 374.302C543.71 374.318 543.496 374.409 543.321 374.563C543.145 374.716 543.017 374.925 542.953 375.162L512.37 476.991C512.241 477.464 512.026 477.904 511.737 478.283C511.449 478.662 511.093 478.971 510.691 479.193C510.29 479.414 509.851 479.543 509.403 479.571C508.955 479.599 508.506 479.525 508.085 479.355L497.57 475.109C497 474.881 496.498 474.482 496.12 473.958C495.743 473.435 495.504 472.806 495.432 472.142C490.409 426.908 530.772 312.298 531.181 311.146L531.294 310.827L568.853 319.659L568.931 319.751C584.013 337.61 597.075 450.918 599.541 473.451C599.632 474.265 599.47 475.089 599.08 475.787C598.689 476.486 598.095 477.017 597.394 477.293L588.163 480.975C587.814 481.114 587.447 481.187 587.076 481.19Z" fill="#2F2E41"/>
<path d="M553.702 323.461C544.617 323.535 534.474 321.622 531.301 313.411L531.228 313.222L531.324 313.046C533.755 308.578 536.956 300.962 535.198 299.552C531.735 296.775 530.033 292.174 530.139 285.876C530.369 272.205 538.74 260 550.971 255.506L550.971 255.506C554.385 254.271 557.861 253.255 561.381 252.462C563.947 251.869 566.601 251.911 569.151 252.582C571.701 253.254 574.085 254.54 576.131 256.347C578.202 258.166 579.882 260.468 581.05 263.087C582.217 265.706 582.844 268.578 582.885 271.496C583.112 286.102 581.208 306.464 570.848 320.517C570.362 321.169 569.683 321.612 568.931 321.767C563.908 322.81 558.813 323.377 553.702 323.461Z" fill="#CCCCCC"/>
<path d="M550.318 322.941C550.8 320.983 551.963 319.314 553.555 318.295C555.147 317.277 557.04 316.992 558.822 317.502C559.186 317.611 559.541 317.753 559.884 317.926L571.495 306.109L579.666 312.077L563.058 328.513C562.313 330.019 561.133 331.207 559.705 331.888C558.276 332.569 556.682 332.705 555.176 332.273C554.298 332.016 553.476 331.57 552.756 330.961C552.036 330.351 551.432 329.591 550.981 328.723C550.529 327.855 550.238 326.898 550.124 325.905C550.01 324.913 550.077 323.905 550.318 322.941V322.941Z" fill="#FFB8B8"/>
<path d="M569.757 322.931C568.998 322.938 568.261 322.655 567.671 322.13L563.032 318.017C562.646 317.675 562.334 317.24 562.122 316.746C561.909 316.251 561.801 315.711 561.805 315.164C561.809 314.617 561.925 314.078 562.145 313.588C562.365 313.098 562.682 312.669 563.074 312.333L582.299 295.836C582.527 295.639 582.676 295.352 582.712 295.035C582.749 294.719 582.671 294.4 582.495 294.146L570.443 276.861C569.043 274.859 568.331 272.377 568.433 269.852C568.535 267.328 569.444 264.924 570.999 263.067V263.067C572.638 261.089 574.891 259.861 577.313 259.627C579.734 259.394 582.147 260.172 584.072 261.808L584.148 261.895L596.743 281.453C598.099 282.606 599.194 284.089 599.944 285.785C600.693 287.482 601.076 289.346 601.063 291.233C601.051 293.119 600.642 294.977 599.87 296.661C599.098 298.345 597.983 299.81 596.612 300.94L571.711 322.204C571.147 322.671 570.462 322.925 569.757 322.931Z" fill="#CCCCCC"/>
<path d="M543.73 222.851L543.663 213.033L559.521 205.249L574.742 212.778L574.809 222.596C574.811 223.024 574.66 223.435 574.388 223.739C574.116 224.044 573.745 224.217 573.357 224.22L545.203 224.45C544.815 224.453 544.442 224.286 544.166 223.987C543.889 223.687 543.732 223.278 543.73 222.851Z" fill="#2F2E41"/>
<path d="M558.75 199.255C556.355 191.025 561.204 181.532 568.445 178.207C575.685 174.883 584.389 177.094 590.554 182.438C596.719 187.782 600.575 195.831 602.646 204.167C604.717 212.502 605.159 221.209 605.589 229.838C614.524 231.571 620.673 243.181 617.645 252.604C614.617 262.027 603.208 266.789 595.273 261.942C587.339 257.095 584.961 243.91 590.611 236.089C593.285 232.389 594.761 227.811 594.807 223.082C594.852 218.353 593.464 213.742 590.863 209.979C588.261 206.217 584.595 203.518 580.444 202.311C576.293 201.104 571.896 201.456 567.947 203.313C563.563 205.376 558.01 200.156 558.75 199.255Z" fill="#2F2E41"/>
<path d="M438.049 434.569C437.676 445.658 435.758 456.638 432.349 467.185C432.271 467.43 432.19 467.671 432.108 467.916L411.698 467.76C411.722 467.541 411.745 467.296 411.769 467.028C413.242 451.252 421.767 355.23 412.503 338.727C413.313 340.066 439.986 384.42 438.049 434.569Z" fill="#E6E6E6"/>
<path d="M436.286 467.215C436.114 467.459 435.935 467.703 435.751 467.944L420.441 467.827C420.558 467.619 420.694 467.375 420.852 467.098C423.414 462.51 430.998 448.795 438.049 434.57C445.626 419.283 452.59 403.409 452.054 397.641C452.223 398.942 457.11 438.611 436.286 467.215Z" fill="#E6E6E6"/>
<path d="M492.992 466.976L0.840332 463.231L0.826622 465.168L492.978 468.913L492.992 466.976Z" fill="#E6E6E6"/>
<path d="M281.34 525.86L284.359 502.148L365.046 481.904L355.979 453.784C362.566 435.153 373.962 426.082 394.6 435.378L430.052 457.971C433.498 460.167 436.295 463.256 438.153 466.916C440.01 470.576 440.858 474.672 440.609 478.776V478.776C440.363 482.896 439.018 486.871 436.717 490.283C434.417 493.695 431.246 496.416 427.539 498.16C387.538 516.925 336.677 523.834 281.34 525.86Z" fill="#FFB8B8"/>
<path d="M286.279 533.09L261.358 529.304L237.992 533.932C236.56 534.215 235.085 534.182 233.667 533.833C232.249 533.485 230.923 532.83 229.78 531.914C228.638 530.998 227.706 529.843 227.049 528.528C226.392 527.214 226.025 525.771 225.975 524.299V524.299C225.919 522.654 226.259 521.019 226.967 519.536C227.676 518.053 228.73 516.765 230.04 515.784L266.799 488.266C269.952 485.906 273.835 484.757 277.752 485.026C281.669 485.295 285.364 486.964 288.172 489.734L297.214 498.65C290.67 502.679 285.782 508.761 282.827 517.241C289.064 520.762 290.214 526.045 286.279 533.09Z" fill="#2F2E41"/>
<path d="M311.868 284.094C324.609 284.191 335.012 273.847 335.103 260.99C335.194 248.133 324.939 237.632 312.197 237.535C299.456 237.438 289.053 247.782 288.962 260.639C288.871 273.496 299.126 283.997 311.868 284.094Z" fill="#FFB8B8"/>
<path d="M347.752 306.997L295.923 328.539C300.274 307.293 302.504 287.926 296.295 276.037L329.465 272.334C327.756 281.421 336.055 293.672 347.752 306.997Z" fill="#FFB8B8"/>
<path d="M258.538 524.968L239.304 523.383C227.866 473.686 222.162 426.752 225.099 383.98C225.516 377.736 228.313 371.898 232.904 367.692C237.495 363.485 243.523 361.238 249.722 361.42C255.68 361.602 261.357 364.018 265.645 368.197L290.361 392.283C301.384 402.941 309.907 415.95 315.308 430.357C322.224 449.038 319.62 459.461 302.807 457.559C292.302 456.297 282.669 451.036 275.875 442.85L257.845 421.391L258.538 524.968Z" fill="#FFB8B8"/>
<path d="M243.218 583.801C240.697 583.616 238.252 582.848 236.072 581.556C233.892 580.264 232.036 578.482 230.648 576.35C229.26 574.218 228.377 571.792 228.067 569.261C227.757 566.729 228.029 564.16 228.862 561.752L232.696 550.663L235.746 522.636C240.201 513.627 246.411 515.027 253.569 522.052C258.155 521.633 259.171 517.017 258.64 510.583L272.95 530.32C274.175 532.009 274.928 533.998 275.132 536.081C275.336 538.163 274.982 540.263 274.109 542.16L259.339 574.237C257.932 577.294 255.636 579.846 252.756 581.554C249.877 583.262 246.55 584.046 243.218 583.801V583.801Z" fill="#2F2E41"/>
<path d="M426.177 455.398C399.699 470.3 391.43 470.675 365.052 481.185L342.336 468.066C315.479 477.856 296.786 464.013 276.578 443.471C290.055 421.187 284.371 392.053 292.62 392.526L391.113 424.563L395.313 435.384L426.177 455.398Z" fill="#2F2E41"/>
<path d="M394.625 431.782C359.662 446.741 322.247 430.337 290.466 394.668L269.868 308.071C269.624 307.117 269.576 306.123 269.727 305.15C269.879 304.176 270.226 303.245 270.748 302.412C271.27 301.58 271.955 300.864 272.762 300.31C273.569 299.755 274.479 299.373 275.438 299.187L300.085 294.407L312.064 313.918L336.45 292.526L362.126 301.212C365.539 302.366 368.579 304.435 370.918 307.197C373.258 309.959 374.81 313.31 375.41 316.893L394.625 431.782Z" fill="#888473"/>
<path opacity="0.2" d="M338.744 504.636C336.868 503.899 335.194 502.718 333.864 501.194C332.533 499.669 331.584 497.844 331.096 495.873C330.609 493.902 330.597 491.842 331.061 489.866C331.526 487.89 332.453 486.055 333.766 484.515L350.196 465.248L361.554 471.807L355.511 495.92C355.074 497.665 354.274 499.296 353.164 500.705C352.055 502.114 350.661 503.269 349.076 504.093C347.491 504.917 345.749 505.392 343.968 505.486C342.187 505.579 340.406 505.29 338.744 504.636Z" fill="black"/>
<path d="M338.764 501.76C336.888 501.023 335.214 499.842 333.884 498.317C332.553 496.793 331.604 494.968 331.117 492.997C330.629 491.026 330.617 488.966 331.082 486.99C331.546 485.014 332.474 483.179 333.786 481.639L350.217 462.372L361.575 468.931L355.531 493.044C355.094 494.789 354.294 496.42 353.185 497.829C352.075 499.238 350.682 500.393 349.096 501.217C347.511 502.041 345.77 502.516 343.988 502.609C342.207 502.703 340.426 502.414 338.764 501.76V501.76Z" fill="#FFB8B8"/>
<path d="M364.385 474.707L347.361 463.069L372.78 396.373L364.181 302.087L372.596 307.482C377.112 310.377 380.998 314.168 384.019 318.624C387.04 323.08 389.133 328.108 390.17 333.404L403.397 400.921C397.181 431.949 386.993 459.212 364.385 474.707Z" fill="#888473"/>
<path opacity="0.2" d="M354.806 367.826L363.054 411.043L355.84 436.227L354.806 367.826Z" fill="black"/>
<path d="M289.485 258.646C289.485 258.646 276.501 214.642 317.067 224.159C323.36 225.635 328.778 229.373 333.075 234.241C333.46 234.667 333.933 235.002 334.46 235.224C334.987 235.446 335.556 235.549 336.127 235.526C342.618 235.575 346.461 259.01 333.407 269.203C333.407 269.203 336.154 255.374 331.373 250.618C330.512 249.813 329.794 248.866 329.249 247.818C326.161 241.415 315.642 239.242 308.373 239.729C304.662 239.978 304.292 246.501 300.192 245.558C290.865 243.414 287.805 254.311 289.485 258.646Z" fill="#2F2E41"/>
<path d="M329.919 324.121L329.637 326.107L327.889 338.36L325.028 358.426L324.312 363.45C324.257 363.833 324.067 364.184 323.776 364.436C323.485 364.689 323.113 364.827 322.729 364.824L304.597 364.686C304.214 364.683 303.844 364.54 303.557 364.284C303.269 364.028 303.083 363.675 303.033 363.292L302.376 358.254L299.754 338.146L298.151 325.858L297.893 323.881C297.864 323.654 297.883 323.423 297.949 323.204C298.015 322.985 298.127 322.783 298.277 322.611C298.427 322.439 298.613 322.302 298.82 322.209C299.027 322.115 299.252 322.068 299.479 322.07L328.359 322.289C328.585 322.291 328.809 322.342 329.015 322.438C329.22 322.535 329.403 322.674 329.551 322.848C329.699 323.021 329.808 323.224 329.872 323.444C329.935 323.664 329.952 323.894 329.919 324.121V324.121Z" fill="#E6E6E6"/>
<path d="M301.43 316.763L326.577 316.954C326.785 316.956 326.992 316.999 327.184 317.081C327.376 317.163 327.55 317.282 327.696 317.432C327.843 317.582 327.959 317.76 328.037 317.955C328.115 318.15 328.155 318.358 328.154 318.569L328.139 320.686C328.136 321.111 327.965 321.517 327.665 321.815C327.365 322.114 326.96 322.279 326.539 322.276L301.392 322.085C300.971 322.082 300.568 321.91 300.272 321.607C299.977 321.304 299.812 320.895 299.815 320.47L299.83 318.353C299.832 318.143 299.874 317.935 299.955 317.741C300.037 317.547 300.155 317.372 300.303 317.224C300.452 317.076 300.628 316.959 300.821 316.88C301.014 316.801 301.221 316.761 301.43 316.763V316.763Z" fill="#3F3D56"/>
<path d="M332.185 324.98C320.053 326.223 307.822 326.13 295.709 324.702C295.5 324.701 295.294 324.658 295.102 324.576C294.91 324.494 294.736 324.374 294.589 324.224C294.443 324.074 294.327 323.897 294.249 323.702C294.17 323.507 294.131 323.298 294.132 323.088L294.147 320.971C294.149 320.76 294.191 320.552 294.272 320.358C294.354 320.165 294.472 319.989 294.62 319.841C294.769 319.694 294.945 319.577 295.138 319.498C295.331 319.419 295.538 319.379 295.746 319.38C307.849 320.976 320.099 321.069 332.223 319.658C332.644 319.661 333.047 319.833 333.343 320.136C333.638 320.439 333.803 320.847 333.8 321.272L333.785 323.39C333.782 323.814 333.611 324.221 333.312 324.519C333.012 324.817 332.607 324.983 332.185 324.98V324.98Z" fill="#3F3D56"/>
<path d="M313.037 349.427C316.822 349.456 319.913 346.383 319.94 342.563C319.967 338.743 316.92 335.623 313.135 335.594C309.349 335.566 306.259 338.639 306.232 342.459C306.205 346.278 309.252 349.398 313.037 349.427Z" fill="white"/>
<path d="M330.604 357.195C330.798 359.217 330.508 361.257 329.759 363.142C329.011 365.027 327.825 366.704 326.301 368.031C324.778 369.357 322.961 370.296 321.003 370.768C319.045 371.239 317.004 371.23 315.05 370.741L290.593 364.62L291.272 351.435L315.33 346.018C317.07 345.626 318.874 345.612 320.621 345.976C322.368 346.341 324.018 347.076 325.462 348.133C326.907 349.19 328.112 350.545 328.998 352.107C329.885 353.669 330.432 355.404 330.604 357.195V357.195Z" fill="#FFB8B8"/>
<path d="M297.433 367.03L231.306 368.194C228.919 368.236 226.552 367.753 224.368 366.777C222.185 365.802 220.239 364.357 218.665 362.545C217.091 360.733 215.927 358.597 215.255 356.285C214.583 353.973 214.419 351.541 214.773 349.159C215.328 345.426 217.13 341.997 219.88 339.439L251.217 310.291C257.029 304.885 264.249 301.264 272.03 299.853L282.954 297.872L289.023 346.827L251.991 342.23L295.433 347.595L297.433 367.03Z" fill="#888473"/>
<path d="M209.317 509.876L40.5279 508.591C39.0268 508.58 37.5916 507.967 36.5378 506.888C35.484 505.809 34.898 504.352 34.9087 502.837V502.837C96.1453 496.127 156.181 496.584 215.017 504.208C215.006 505.722 214.399 507.17 213.33 508.233C212.261 509.296 210.818 509.887 209.317 509.876Z" fill="#2F2E41"/>
<path d="M215.014 504.543L34.9087 502.837L56.0334 467.555L56.1345 467.387L56.6873 389.279C56.694 388.331 56.8856 387.394 57.2513 386.52C57.617 385.647 58.1496 384.855 58.8187 384.19C59.4878 383.525 60.2803 382.999 61.1509 382.643C62.0215 382.287 62.9532 382.107 63.8928 382.114L186.746 383.049C187.685 383.056 188.614 383.25 189.48 383.619C190.345 383.988 191.13 384.526 191.79 385.202C192.449 385.877 192.971 386.677 193.324 387.556C193.677 388.434 193.856 389.375 193.849 390.323L193.292 468.969L215.014 504.543Z" fill="#3F3D56"/>
<path d="M63.6941 387.152C63.0763 387.148 62.4822 387.392 62.0422 387.829C61.6022 388.267 61.3522 388.862 61.3471 389.486L60.8431 460.704C60.8394 461.328 61.0809 461.927 61.5147 462.371C61.9484 462.816 62.539 463.068 63.1568 463.074L187.335 464.018C187.952 464.022 188.547 463.779 188.987 463.341C189.427 462.904 189.677 462.308 189.682 461.685L190.186 390.466C190.189 389.843 189.948 389.243 189.514 388.799C189.08 388.355 188.49 388.102 187.872 388.097L63.6941 387.152Z" fill="white"/>
<path d="M63.9059 472.486C63.7149 472.485 63.5277 472.539 63.3662 472.642C63.2047 472.744 63.0756 472.892 62.9943 473.066L56.4626 487.126C56.3915 487.279 56.3596 487.448 56.37 487.617C56.3804 487.785 56.4327 487.949 56.522 488.092C56.6114 488.235 56.7349 488.353 56.8813 488.435C57.0277 488.517 57.1922 488.561 57.3597 488.562L192.619 489.591C192.789 489.593 192.957 489.55 193.106 489.468C193.255 489.385 193.381 489.265 193.472 489.12C193.562 488.974 193.614 488.808 193.623 488.636C193.632 488.465 193.597 488.294 193.522 488.14L186.631 473.977C186.55 473.809 186.423 473.667 186.266 473.567C186.109 473.467 185.927 473.414 185.742 473.413L63.9059 472.486Z" fill="#2F2E41"/>
<path d="M125.292 386.445C126.119 386.451 126.795 385.78 126.801 384.945C126.807 384.11 126.141 383.428 125.313 383.422C124.486 383.416 123.81 384.087 123.804 384.922C123.799 385.757 124.465 386.439 125.292 386.445Z" fill="white"/>
<path d="M111.251 491.66C111.032 491.658 110.818 491.73 110.643 491.863C110.467 491.997 110.341 492.184 110.282 492.398L108.625 498.432C108.585 498.581 108.578 498.738 108.607 498.89C108.635 499.042 108.698 499.185 108.791 499.309C108.883 499.432 109.003 499.533 109.14 499.602C109.277 499.672 109.427 499.709 109.581 499.71L140.264 499.943C140.423 499.944 140.58 499.907 140.722 499.835C140.864 499.762 140.987 499.656 141.08 499.526C141.173 499.396 141.234 499.245 141.258 499.086C141.282 498.927 141.268 498.765 141.217 498.613L139.185 492.55C139.119 492.352 138.992 492.179 138.824 492.056C138.656 491.933 138.454 491.867 138.246 491.865L111.251 491.66Z" fill="#2F2E41"/>
<path d="M193.304 467.255L193.295 468.6L56.0335 467.555L56.1375 467.387L56.1458 466.212L193.304 467.255Z" fill="#2F2E41"/>
<path d="M95.4627 416.447C106.972 416.414 118.481 416.293 129.991 416.223C133.828 416.2 137.665 416.183 141.502 416.173C144.808 416.163 144.853 410.976 141.538 410.985C130.029 411.019 118.52 411.139 107.01 411.209C103.173 411.232 99.3364 411.249 95.4994 411.26C92.1933 411.269 92.1481 416.456 95.4627 416.447Z" fill="#3F3D56"/>
<path d="M95.377 428.55L141.894 428.418L155.124 428.38C158.43 428.371 158.475 423.184 155.161 423.193L108.643 423.325L95.4137 423.363C92.1076 423.373 92.0624 428.56 95.377 428.55Z" fill="#3F3D56"/>
<path d="M95.2915 440.654L141.809 440.521L155.039 440.484C158.345 440.474 158.39 435.287 155.075 435.296L108.558 435.429L95.3283 435.466C92.0221 435.476 91.977 440.663 95.2915 440.654Z" fill="#3F3D56"/>
<path d="M148.789 131.71C177.34 131.836 200.552 113.596 200.635 90.971C200.717 68.3457 177.638 49.9024 149.086 49.7769C120.535 49.6513 97.3224 67.891 97.2403 90.5164C97.1582 113.142 120.237 131.585 148.789 131.71Z" fill="#FF6584"/>
<path d="M254.391 256.183C296.2 250.396 317.83 190.877 302.703 123.243C287.575 55.6096 241.418 5.47256 199.609 11.2592C157.8 17.0458 136.17 76.5648 151.298 144.199C166.425 211.832 212.582 261.969 254.391 256.183Z" fill="#E6E6E6"/>
<path d="M214.493 110.397C221.202 124.999 227.167 139.796 232.385 154.788C237.594 169.766 242.041 184.891 245.727 200.164C249.412 215.433 252.322 230.799 254.457 246.265C256.581 261.704 257.926 277.192 258.49 292.729C259.052 308.249 259.445 293.856 258.43 309.375C259.716 283.495 262.205 290.6 258.43 309.375C258.279 311.315 260.705 288.597 258.43 309.375C259.642 293.808 262.852 313.85 262.478 298.237C262.102 282.713 260.942 267.216 258.998 251.747C257.05 236.232 254.328 220.792 250.834 205.427C247.338 190.068 243.069 174.836 238.027 159.729C232.988 144.64 227.185 129.726 220.618 114.989C219.817 113.192 219.005 111.399 218.181 109.608C217.346 107.79 213.648 108.558 214.493 110.397Z" fill="#3F3D56"/>
<path d="M240.62 167.836L257.66 138.117L262.463 129.741C262.705 129.392 262.77 128.984 262.644 128.598C262.518 128.212 262.21 127.879 261.785 127.666C261.347 127.464 260.827 127.407 260.338 127.507C259.848 127.606 259.428 127.854 259.168 128.198L242.128 157.916L237.325 166.293C237.083 166.641 237.018 167.05 237.144 167.436C237.27 167.821 237.578 168.155 238.003 168.368C238.441 168.569 238.961 168.626 239.45 168.527C239.94 168.427 240.36 168.179 240.619 167.836L240.62 167.836Z" fill="#3F3D56"/>
<path d="M244.287 188.21L205.719 176.569L194.849 173.288C194.361 173.182 193.84 173.233 193.4 173.429C192.959 173.625 192.634 173.95 192.494 174.335C192.369 174.721 192.438 175.132 192.685 175.48C192.933 175.828 193.34 176.087 193.822 176.204L232.39 187.845L243.26 191.126C243.749 191.231 244.269 191.181 244.709 190.985C245.15 190.789 245.475 190.463 245.615 190.078C245.74 189.692 245.672 189.282 245.424 188.933C245.177 188.585 244.769 188.326 244.287 188.21L244.287 188.21Z" fill="#3F3D56"/>
<path d="M444.233 206.883L454.786 197.592C446.588 196.596 443.22 201.518 441.841 205.413C435.436 202.486 428.464 206.323 428.464 206.323L449.579 214.761C448.513 211.629 446.659 208.896 444.233 206.883V206.883Z" fill="#3F3D56"/>
<path d="M366.871 157.284L377.424 147.992C369.226 146.997 365.858 151.919 364.479 155.814C358.074 152.887 351.102 156.724 351.102 156.724L372.217 165.162C371.152 162.03 369.297 159.297 366.871 157.284V157.284Z" fill="#3F3D56"/>
<path d="M482.489 119.85L493.042 110.559C484.844 109.563 481.475 114.485 480.097 118.381C473.692 115.453 466.719 119.29 466.719 119.29L487.834 127.728C486.769 124.596 484.915 121.863 482.489 119.85V119.85Z" fill="#3F3D56"/>
</svg>
