<svg width="58" height="58" viewBox="0 0 58 58" fill="none" xmlns="http://www.w3.org/2000/svg">
<g filter="url(#filter0_d)">
<path d="M54 25C54 38.8071 42.8071 50 29 50C15.1929 50 4 38.8071 4 25C4 11.1929 15.1929 0 29 0C42.8071 0 54 11.1929 54 25Z" fill="#FBCF18"/>
<path d="M53 25C53 38.2548 42.2548 49 29 49C15.7452 49 5 38.2548 5 25C5 11.7452 15.7452 1 29 1C42.2548 1 53 11.7452 53 25Z" stroke="black" stroke-width="2"/>
</g>
<g filter="url(#filter1_d)">
<path d="M34 15H24C21.2386 15 19 17.2386 19 20V30C19 32.7614 21.2386 35 24 35H34C36.7614 35 39 32.7614 39 30V20C39 17.2386 36.7614 15 34 15Z" stroke="black" stroke-width="2" stroke-linecap="round" stroke-linejoin="round"/>
<path d="M33 24.3698C33.1234 25.2021 32.9812 26.052 32.5937 26.7988C32.2062 27.5456 31.5931 28.1512 30.8416 28.5295C30.0901 28.9077 29.2384 29.0394 28.4077 28.9057C27.5771 28.7721 26.8097 28.3799 26.2148 27.785C25.6199 27.1901 25.2277 26.4227 25.094 25.592C24.9604 24.7614 25.092 23.9097 25.4703 23.1582C25.8485 22.4067 26.4541 21.7936 27.2009 21.4061C27.9477 21.0186 28.7977 20.8764 29.63 20.9998C30.4789 21.1257 31.2648 21.5213 31.8716 22.1281C32.4785 22.735 32.8741 23.5209 33 24.3698Z" stroke="black" stroke-width="2" stroke-linecap="round" stroke-linejoin="round"/>
<path d="M34.5 19.5H34.51" stroke="black" stroke-width="2" stroke-linecap="round" stroke-linejoin="round"/>
</g>
<defs>
<filter id="filter0_d" x="0" y="0" width="58" height="58" filterUnits="userSpaceOnUse" color-interpolation-filters="sRGB">
<feFlood flood-opacity="0" result="BackgroundImageFix"/>
<feColorMatrix in="SourceAlpha" type="matrix" values="0 0 0 0 0 0 0 0 0 0 0 0 0 0 0 0 0 0 127 0"/>
<feOffset dy="4"/>
<feGaussianBlur stdDeviation="2"/>
<feColorMatrix type="matrix" values="0 0 0 0 0 0 0 0 0 0 0 0 0 0 0 0 0 0 0.25 0"/>
<feBlend mode="normal" in2="BackgroundImageFix" result="effect1_dropShadow"/>
<feBlend mode="normal" in="SourceGraphic" in2="effect1_dropShadow" result="shape"/>
</filter>
<filter id="filter1_d" x="13" y="13" width="32" height="32" filterUnits="userSpaceOnUse" color-interpolation-filters="sRGB">
<feFlood flood-opacity="0" result="BackgroundImageFix"/>
<feColorMatrix in="SourceAlpha" type="matrix" values="0 0 0 0 0 0 0 0 0 0 0 0 0 0 0 0 0 0 127 0"/>
<feOffset dy="4"/>
<feGaussianBlur stdDeviation="2"/>
<feColorMatrix type="matrix" values="0 0 0 0 0 0 0 0 0 0 0 0 0 0 0 0 0 0 0.25 0"/>
<feBlend mode="normal" in2="BackgroundImageFix" result="effect1_dropShadow"/>
<feBlend mode="normal" in="SourceGraphic" in2="effect1_dropShadow" result="shape"/>
</filter>
</defs>
</svg>
